<?xml version="1.0" encoding="UTF-8" standalone="no"?>
<!-- Created with Inkscape (http://www.inkscape.org/) -->

<svg
   width="210mm"
   height="297mm"
   viewBox="0 0 210 297"
   version="1.1"
   id="svg1"
   xml:space="preserve"
   inkscape:version="1.3.2 (091e20e, 2023-11-25, custom)"
   sodipodi:docname="icono_demon.svg"
   xmlns:inkscape="http://www.inkscape.org/namespaces/inkscape"
   xmlns:sodipodi="http://sodipodi.sourceforge.net/DTD/sodipodi-0.dtd"
   xmlns="http://www.w3.org/2000/svg"
   xmlns:svg="http://www.w3.org/2000/svg"><sodipodi:namedview
     id="namedview1"
     pagecolor="#ffffff"
     bordercolor="#000000"
     borderopacity="0.25"
     inkscape:showpageshadow="2"
     inkscape:pageopacity="0.0"
     inkscape:pagecheckerboard="0"
     inkscape:deskcolor="#d1d1d1"
     inkscape:document-units="mm"
     inkscape:zoom="0.72426347"
     inkscape:cx="396.95499"
     inkscape:cy="561.25984"
     inkscape:window-width="1920"
     inkscape:window-height="1009"
     inkscape:window-x="-8"
     inkscape:window-y="-8"
     inkscape:window-maximized="1"
     inkscape:current-layer="layer1" /><defs
     id="defs1" /><g
     inkscape:label="Capa 1"
     inkscape:groupmode="layer"
     id="layer1"><path
       style="fill:#d40000"
       d="m 107.86723,231.02607 c 0,-0.2013 0.1143,-0.43665 0.254,-0.52299 0.1397,-0.0863 0.254,-0.49313 0.254,-0.90399 0,-0.41085 0.1143,-0.74701 0.254,-0.74701 0.1397,0 0.254,-0.4572 0.254,-1.016 0,-0.5588 0.1143,-1.016 0.254,-1.016 0.1532,0 0.254,-1.05833 0.254,-2.667 0,-1.60867 -0.1008,-2.667 -0.254,-2.667 -0.1397,0 -0.254,-0.56475 -0.254,-1.25501 0,-0.69025 -0.1143,-1.32565 -0.254,-1.41199 -0.1397,-0.0863 -0.254,-0.60743 -0.254,-1.15799 0,-0.55055 -0.1143,-1.00101 -0.254,-1.00101 -0.1397,0 -0.254,-0.2286 -0.254,-0.508 0,-0.2794 -0.1143,-0.508 -0.254,-0.508 -0.1397,0 -0.254,-0.26331 -0.254,-0.58513 0,-0.61684 -1.15033,-3.12093 -1.54604,-3.36549 -0.12758,-0.0788 -0.23196,-0.36521 -0.23196,-0.63637 0,-0.27115 -0.1143,-0.49301 -0.254,-0.49301 -0.1397,0 -0.254,-0.20337 -0.254,-0.45193 0,-0.24856 -0.2286,-0.61669 -0.508,-0.81807 -0.2794,-0.20138 -0.508,-0.56951 -0.508,-0.81807 0,-0.24856 -0.10128,-0.45193 -0.22506,-0.45193 -0.12379,0 -0.4165,-0.40343 -0.65049,-0.89652 -0.23398,-0.49308 -0.64706,-1.03493 -0.91794,-1.2041 -0.27088,-0.16917 -0.49251,-0.45257 -0.49251,-0.62979 0,-0.17722 -0.3429,-0.68103 -0.762,-1.11957 -0.4191,-0.43855 -0.762,-0.93048 -0.762,-1.09317 0,-0.16269 -0.357387,-0.63152 -0.794187,-1.04183 -0.4368,-0.41031 -0.98985,-1.06025 -1.22901,-1.44431 -0.23915,-0.38406 -0.85331,-1.15061 -1.36481,-1.70344 -0.5115,-0.55283 -0.93,-1.15634 -0.93,-1.34113 0,-0.1848 -0.2286,-0.50076 -0.508,-0.70214 -0.2794,-0.20138 -0.508,-0.5535 -0.508,-0.78249 0,-0.229 -0.28575,-0.63094 -0.635,-0.89322 -0.34925,-0.26227 -0.635,-0.6531 -0.635,-0.8685 0,-0.21541 -0.2286,-0.55641 -0.508,-0.75779 -0.2794,-0.20138 -0.508,-0.56951 -0.508,-0.81807 0,-0.24856 -0.1143,-0.45193 -0.254,-0.45193 -0.1397,0 -0.254,-0.16797 -0.254,-0.37327 0,-0.2053 -0.2286,-0.78028 -0.508,-1.27773 -0.2794,-0.49745 -0.508,-1.07398 -0.508,-1.28117 0,-0.2072 -0.10739,-0.5752 -0.23866,-0.81778 -0.13126,-0.24258 -0.30488,-0.75537 -0.38583,-1.13955 -0.19305,-0.91614 -0.51612,-0.88328 -1.0079,0.10252 -0.30117,0.6037 -0.39961,1.60484 -0.39961,4.064 0,1.92982 -0.10026,3.26298 -0.2454,3.26298 -0.13817,0 -0.27692,1.19191 -0.3175,2.72749 -0.0622,2.35138 -0.1328,2.73911 -0.51227,2.81179 -0.49527,0.0949 -5.02083,-4.29328 -5.02083,-4.86837 0,-0.19016 -0.28575,-0.56034 -0.635,-0.82262 -0.34925,-0.26227 -0.635,-0.67833 -0.635,-0.92458 0,-0.24624 -0.1143,-0.44771 -0.254,-0.44771 -0.1397,0 -0.254,-0.2286 -0.254,-0.508 0,-0.2794 -0.0952,-0.508 -0.21161,-0.508 -0.28454,0 -1.82039,-3.00404 -1.82039,-3.56058 0,-0.24267 -0.17145,-0.58351 -0.381,-0.75742 -0.20955,-0.17391 -0.381,-0.53081 -0.381,-0.7931 0,-0.26229 -0.1143,-0.4769 -0.254,-0.4769 -0.1397,0 -0.254,-0.3429 -0.254,-0.762 0,-0.4191 -0.1143,-0.762 -0.254,-0.762 -0.1397,0 -0.254,-0.51435 -0.254,-1.143 0,-0.62865 -0.1143,-1.143 -0.254,-1.143 -0.1397,0 -0.254,-0.4572 -0.254,-1.016 0,-0.5588 -0.1143,-1.016 -0.254,-1.016 -0.1397,0 -0.254,-0.62865 -0.254,-1.397 0,-0.76835 -0.1143,-1.397 -0.254,-1.397 -0.14014,0 -0.254,-0.6604 -0.254,-1.4732 0,-0.81026 -0.10462,-1.58178 -0.23249,-1.7145 -0.12787,-0.13271 -0.27075,-0.52588 -0.3175,-0.8737 -0.0478,-0.35582 -0.27942,-0.66946 -0.52951,-0.71713 -0.40337,-0.0769 -0.4445,0.19766 -0.4445,2.96692 0,1.76043 0.10747,3.11805 0.254,3.20861 0.1397,0.0863 0.254,1.05789 0.254,2.159 0,1.10111 0.1143,2.07266 0.254,2.159 0.1397,0.0863 0.254,0.82929 0.254,1.651 0,0.82171 0.1143,1.56466 0.254,1.651 0.26545,0.16406 0.36152,1.397 0.10886,1.397 -0.24429,0 -0.87086,-0.70963 -0.87086,-0.98631 0,-0.14333 -0.28575,-0.54635 -0.635,-0.8956 -0.34925,-0.34925 -0.635,-0.78641 -0.635,-0.97147 0,-0.18506 -0.2286,-0.50124 -0.508,-0.70262 -0.2794,-0.20138 -0.508,-0.48278 -0.508,-0.62532 0,-0.49402 -1.78967,-3.87851 -2.29063,-4.33187 -0.27685,-0.25055 -0.50337,-0.66643 -0.50337,-0.92418 0,-0.25774 -0.1143,-0.46863 -0.254,-0.46863 -0.1397,0 -0.254,-0.2286 -0.254,-0.508 0,-0.2794 -0.1143,-0.508 -0.254,-0.508 -0.1397,0 -0.254,-0.2286 -0.254,-0.508 0,-0.2794 -0.1143,-0.508 -0.254,-0.508 -0.1397,0 -0.254,-0.22185 -0.254,-0.49301 0,-0.27115 -0.1143,-0.56365 -0.254,-0.64999 -0.1397,-0.0863 -0.254,-0.36127 -0.254,-0.61097 0,-0.52608 -0.68293,-1.97719 -1.03208,-2.19297 -0.13086,-0.0809 -0.23792,-0.59749 -0.23792,-1.14805 0,-0.55056 -0.1143,-1.00101 -0.254,-1.00101 -0.1397,0 -0.254,-0.45045 -0.254,-1.00101 0,-0.55055 -0.1143,-1.07165 -0.254,-1.15799 -0.1397,-0.0863 -0.254,-0.94359 -0.254,-1.905 0,-0.96141 -0.1143,-1.81866 -0.254,-1.905 -0.16083,-0.0994 -0.254,-3.16045 -0.254,-8.34544 v -8.18846 l -0.96321,-0.94055 c -0.52976,-0.5173 -1.15841,-0.94055 -1.397,-0.94055 -0.23858,0 -0.43379,-0.1143 -0.43379,-0.254 0,-0.1397 -0.21637,-0.254 -0.48082,-0.254 -0.26446,0 -0.54662,-0.17145 -0.62703,-0.381 -0.10332,-0.26924 -0.5234,-0.381 -1.43215,-0.381 -0.90875,0 -1.32883,0.11176 -1.43214,0.381 -0.0804,0.20955 -0.31623,0.381 -0.52403,0.381 -0.51873,0 -3.37783,2.78454 -3.37783,3.28973 0,0.22447 -0.2286,0.57289 -0.508,0.77427 -0.2794,0.20138 -0.508,0.56951 -0.508,0.81807 0,0.24856 -0.0857,0.45265 -0.1905,0.45354 -0.25552,0.002 -1.0795,1.47071 -1.0795,1.92397 0,0.19823 -0.1143,0.36042 -0.254,0.36042 -0.1397,0 -0.254,0.2286 -0.254,0.508 0,0.2794 -0.1143,0.508 -0.254,0.508 -0.1397,0 -0.254,0.16797 -0.254,0.37327 0,0.20531 -0.2286,0.78028 -0.508,1.27773 -0.2794,0.49745 -0.508,1.07243 -0.508,1.27773 0,0.2053 -0.1143,0.37327 -0.254,0.37327 -0.1397,0 -0.254,0.2286 -0.254,0.508 0,0.2794 -0.0857,0.50872 -0.1905,0.50961 -0.10477,8.8e-4 -0.38521,0.34378 -0.62318,0.762 -0.46366,0.81481 -0.96432,1.00765 -0.96432,0.37142 0,-0.21394 -0.17145,-0.45476 -0.381,-0.53518 -0.21718,-0.0833 -0.381,-0.46216 -0.381,-0.88102 0,-0.40416 -0.1143,-0.73483 -0.254,-0.73483 -0.1397,0 -0.254,-0.33615 -0.254,-0.74701 0,-0.41085 -0.1143,-0.81765 -0.254,-0.90399 -0.1397,-0.0863 -0.254,-0.37883 -0.254,-0.64999 0,-0.27116 -0.1143,-0.49301 -0.254,-0.49301 -0.1397,0 -0.254,-0.2286 -0.254,-0.508 0,-0.2794 -0.1143,-0.508 -0.254,-0.508 -0.1397,0 -0.254,-0.32518 -0.254,-0.72263 0,-0.40006 -0.22676,-0.92786 -0.508,-1.18237 -0.2794,-0.25285 -0.508,-0.59746 -0.508,-0.76579 0,-0.16833 -0.28575,-0.52064 -0.635,-0.78292 -0.34925,-0.26227 -0.635,-0.65406 -0.635,-0.87062 0,-0.4715 -2.12666,-2.54565 -3.1115,-3.03467 -0.38417,-0.19076 -0.6985,-0.44183 -0.6985,-0.55792 0,-0.11609 -0.29391,-0.21108 -0.65314,-0.21108 -0.35923,0 -0.82459,-0.17145 -1.03414,-0.381 -0.20955,-0.20955 -0.59327,-0.381 -0.85272,-0.381 -0.25944,0 -0.64316,0.17145 -0.85271,0.381 -0.20955,0.20955 -0.78247,0.381 -1.27315,0.381 -0.49069,0 -0.9628,0.1143 -1.04914,0.254 -0.0863,0.1397 -0.49313,0.254 -0.90399,0.254 -0.41085,0 -0.74701,0.1143 -0.74701,0.254 0,0.1397 -0.2286,0.254 -0.508,0.254 -0.2794,0 -0.508,0.1143 -0.508,0.254 0,0.1397 -0.2286,0.254 -0.508,0.254 -0.2794,0 -0.508,0.1143 -0.508,0.254 0,0.1397 -0.21088,0.254 -0.46863,0.254 -0.25775,0 -0.67551,0.2286 -0.92837,0.508 -0.25285,0.2794 -0.59746,0.508 -0.76579,0.508 -0.16833,0 -0.52064,0.28575 -0.78292,0.635 -0.26227,0.34925 -0.65282,0.635 -0.86789,0.635 -0.49946,0 -3.806397,3.31769 -3.806397,3.81878 0,0.20736 -0.217142,0.51263 -0.482537,0.67837 -0.510138,0.31859 -1.295463,1.69643 -1.295463,2.27287 0,0.18809 -0.1143,0.34198 -0.254,0.34198 -0.1397,0 -0.254,0.3429 -0.254,0.762 0,0.4191 -0.1143,0.762 -0.254,0.762 -0.1397,0 -0.254,0.33615 -0.254,0.74701 0,0.41086 -0.1143,0.81765 -0.254,0.90399 -0.1397,0.0863 -0.254,0.72933 -0.254,1.42886 0,1.2352 -0.01997,1.26957 -0.692614,1.19151 -0.41571,-0.0482 -0.807778,-0.31266 -0.98067,-0.66139 -0.15843,-0.31956 -0.532553,-0.84128 -0.831385,-1.15937 -0.298832,-0.31809 -0.543331,-0.77101 -0.543331,-1.00648 0,-0.23547 -0.1143,-0.42813 -0.254,-0.42813 -0.1397,0 -0.254,-0.2286 -0.254,-0.508 0,-0.2794 -0.1143,-0.508 -0.254,-0.508 -0.1397,0 -0.254,-0.3429 -0.254,-0.762 0,-0.4191 -0.1143,-0.762 -0.254,-0.762 -0.1397,0 -0.254,-0.22185 -0.254,-0.49301 0,-0.27115 -0.1143,-0.56365 -0.254,-0.64999 -0.1397,-0.0863 -0.254,-0.49313 -0.254,-0.90399 0,-0.41086 -0.1143,-0.74701 -0.254,-0.74701 -0.1397,0 -0.254,-0.2286 -0.254,-0.508 0,-0.2794 -0.1143,-0.508 -0.254,-0.508 -0.1397,0 -0.254,-0.46079 -0.254,-1.02397 0,-0.67589 -0.129516,-1.07367 -0.381,-1.17018 -0.214647,-0.0824 -0.381,-0.46049 -0.381,-0.86603 0,-0.39591 -0.1143,-0.79048 -0.254,-0.87682 -0.1397,-0.0863 -0.254,-0.72173 -0.254,-1.41199 0,-0.69026 -0.1143,-1.25501 -0.254,-1.25501 -0.1397,0 -0.254,-0.32518 -0.254,-0.72263 0,-0.40006 -0.226767,-0.92786 -0.508,-1.18237 -0.2794002,-0.25285 -0.5080002,-0.5888 -0.5080002,-0.74654 0,-0.3667 -2.591576,-2.93646 -2.961386,-2.93646 -0.153126,0 -0.418734,-0.16908 -0.59024,-0.37573 -0.369834,-0.44562 -1.717522,-1.14827 -2.202398,-1.14827 -0.188087,0 -0.341976,-0.1143 -0.341976,-0.254 0,-0.1397 -0.3429,-0.254 -0.762,-0.254 -0.4191,0 -0.762,-0.1143 -0.762,-0.254 0,-0.15903 -1.56133596,-0.254 -4.176009,-0.254 -2.51002,0 -4.238636,0.10133 -4.332991,0.254 -0.08634,0.1397 -0.607435,0.254 -1.15799,0.254 -0.550555,0 -1.00101,0.1143 -1.00101,0.254 0,0.1397 -0.2286,0.254 -0.508,0.254 -0.2794,0 -0.508,0.1143 -0.508,0.254 0,0.1397 -0.152078,0.254 -0.3379518,0.254 -0.514084,0 -2.517325,1.07045 -3.20851,1.7145 -0.33733,0.31433 -0.736907,0.5715 -0.887949,0.5715 -0.356911,0 -4.963589,4.62368 -4.963589,4.98191 0,0.15034 -0.2286,0.48024 -0.508,0.73309 -0.2794,0.25285 -0.508,0.67062 -0.508,0.92837 0,0.25775 -0.1143,0.46863 -0.254,0.46863 -0.1397,0 -0.254,0.2286 -0.254,0.508 0,0.2794 -0.1143,0.508 -0.254,0.508 -0.1397,0 -0.254,0.29391 -0.254,0.65314 0,0.35923 -0.17145,0.8246 -0.381,1.03415 -0.20955,0.20955 -0.381,0.65184 -0.381,0.98286 0,0.33103 -0.1143,0.67251 -0.254,0.75885 -0.1397,0.0863 -0.254,0.65784 -0.254,1.27 0,0.61216 -0.1143,1.18366 -0.254,1.27 -0.340412,0.21039 -0.340412,8.17161 0,8.382 0.148162,0.0916 0.254,1.52664 0.254,3.44399 0,3.15546 -0.02106,3.28701 -0.526142,3.28701 -0.623552,0 -1.251858,-0.56456 -1.251858,-1.12486 0,-0.21953 -0.1143,-0.39914 -0.254,-0.39914 -0.1397,0 -0.254,-0.2286 -0.254,-0.508 0,-0.2794 -0.100681,-0.508 -0.223735,-0.508 -0.123055,0 -0.644645,-0.82867 -1.15909,-1.8415 -0.514445,-1.01282 -1.14836,-2.1844 -1.4087,-2.6035 -0.26034,-0.4191 -0.4817,-1.07632 -0.49191,-1.4605 -0.01021,-0.38417 -0.132864,-0.6985 -0.272564,-0.6985 -0.1397,0 -0.254,-0.33615 -0.254,-0.74701 0,-0.41085 -0.1143,-0.81765 -0.254,-0.90399 -0.1397,-0.0863 -0.254,-0.60743 -0.254,-1.15799 0,-0.55056 -0.1143,-1.00101 -0.254,-1.00101 -0.1397,0 -0.254,-0.45045 -0.254,-1.00101 0,-0.55055 -0.1143,-1.07165 -0.254,-1.15799 -0.1397,-0.0863 -0.254,-0.65784 -0.254,-1.27 0,-0.61216 -0.1143,-1.18366 -0.254,-1.27 -0.1397,-0.0863 -0.254,-1.05064 -0.254,-2.14289 0,-1.45538 -0.101782,-2.07038 -0.381,-2.30211 -0.572187,-0.47487 -0.572187,-18.32113 0,-18.796 0.301114,-0.2499 0.381,-0.97539 0.381,-3.4601 0,-1.9266 0.09835,-3.1439 0.254,-3.1439 0.149411,0 0.254,-0.889 0.254,-2.159 0,-1.27 0.104588,-2.159 0.254,-2.159 0.14083,0 0.254,-0.67234 0.254,-1.50901 0,-0.82996 0.1143,-1.57965 0.254,-1.66599 0.1397,-0.0863 0.254,-0.82929 0.254,-1.651 0,-0.82171 0.1143,-1.56466 0.254,-1.651 0.1397,-0.0863 0.254,-0.60744 0.254,-1.15799 0,-0.55056 0.1143,-1.00101 0.254,-1.00101 0.1397,0 0.254,-0.45045 0.254,-1.00101 0,-0.55056 0.1143,-1.07165 0.254,-1.15799 0.1397,-0.0863 0.254,-0.59521 0.254,-1.13082 0,-0.63131 0.134005,-1.02525 0.381,-1.12003 0.20955,-0.0804 0.381,-0.4288 0.381,-0.77419 0,-0.34539 0.1143,-0.69862 0.254,-0.78496 0.1397,-0.0863 0.254,-0.49314 0.254,-0.90399 0,-0.41086 0.1143,-0.74701 0.254,-0.74701 0.1397,0 0.254,-0.33615 0.254,-0.74701 0,-0.41086 0.1143,-0.81765 0.254,-0.90399 0.1397,-0.0863 0.254,-0.49314 0.254,-0.90399 0,-0.41086 0.1143,-0.74701 0.253999,-0.74701 0.1397,0 0.254,-0.228597 0.254,-0.507997 0,-0.2794 0.1143,-0.508 0.254,-0.508 0.1397,0 0.254,-0.3429 0.254,-0.762 0,-0.4191 0.1143,-0.762 0.254,-0.762 0.1397,0 0.254,-0.22185 0.254,-0.49301 0,-0.27116 0.104837,-0.5578 0.232971,-0.63699 0.298293,-0.18436 2.053029,-3.72519 2.053029,-4.14275 0,-0.17339 0.1143,-0.31525 0.254,-0.31525 0.1397,0 0.254,-0.2286 0.254,-0.508 0,-0.2794 0.1143,-0.508 0.254,-0.508 0.1397,0 0.254,-0.2286 0.254,-0.508 0,-0.2794 0.1143,-0.508 0.254,-0.508 0.1397,0 0.254,-0.20868 0.254,-0.46372 0,-0.25505 0.28575,-0.73218 0.635,-1.06028 0.34925,-0.3281 0.635,-0.73036 0.635,-0.89391 0,-0.16355 0.2286,-0.50424 0.508,-0.75709 0.2794,-0.25285 0.508,-0.59575 0.508,-0.762 0,-0.16625 0.2286,-0.50915 0.508,-0.762 0.2794,-0.25286 0.508,-0.61755 0.508,-0.81045 0,-0.19289 0.22549,-0.6038 0.501087,-0.91313 1.60781,-1.80462 2.292913,-2.6916 2.292913,-2.96857 0,-0.17191 0.74295,-1.01985 1.651,-1.88431 0.90805,-0.86445 1.651,-1.71532 1.651,-1.89081 0,-0.37637 6.9814508,-7.40773 7.3551498,-7.40773 0.140494,0 0.998393,-0.74295 1.906443,-1.651 0.90805004,-0.90805 1.79408804,-1.651 1.96897304,-1.651 0.174885,0 0.90772796,-0.62865 1.62853996,-1.397 0.720811,-0.76835 1.472855,-1.397 1.671209,-1.397 0.198354,0 0.689162,-0.3429 1.090685,-0.762 0.401524,-0.4191 0.831982,-0.762 0.956574,-0.762 0.124592,0 0.740882,-0.51435 1.369532,-1.143 0.62865,-0.62865 1.287711,-1.143 1.46458,-1.143 0.176869,0 0.528461,-0.2286 0.781314,-0.508 0.252854,-0.2794 0.5910472,-0.508 0.7515412,-0.508 0.160493,0 0.67955,-0.40005 1.153459,-0.889 0.473909,-0.48895 1.042598,-0.889 1.263754,-0.889 0.221155,0 0.566866,-0.2286 0.768246,-0.508 0.20138,-0.2794 0.54428,-0.508 0.762,-0.508 0.21772,0 0.56062,-0.2286 0.762,-0.508 0.20138,-0.2794 0.524438,-0.508 0.717907,-0.508 0.337404,0 1.317069,-0.69275 2.511517,-1.77596 0.309333,-0.28052 0.682359,-0.51004 0.828946,-0.51004 0.309377,0 1.212011,-0.48251 1.835041,-0.98093 0.706926,-0.56554 2.794266,-1.559073 3.275496,-1.559073 0.24574,0 0.62554,-0.178737 0.844,-0.397194 0.86894,-0.868934 1.22701,0.443856 0.51201,1.877117 -0.2184,0.43779 -0.50415,0.86215 -0.635,0.94302 -0.13086,0.0809 -0.23792,0.4193 -0.23792,0.75206 0,0.33276 -0.1143,0.67566 -0.254,0.762 -0.1397,0.0863 -0.254,0.37883 -0.254,0.64999 0,0.27115 -0.1143,0.49301 -0.254,0.49301 -0.1397,0 -0.254,0.3429 -0.254,0.762 0,0.4191 -0.1143,0.762 -0.254,0.762 -0.1397,0 -0.254,0.45045 -0.254,1.00101 0,0.55055 -0.114297,1.07165 -0.253997,1.15799 -0.1397,0.0863 -0.254,0.72173 -0.254,1.41199 0,0.69025 -0.1143,1.25501 -0.254,1.25501 -0.159926,0 -0.254,1.69333 -0.254,4.572 0,2.87866 0.09407,4.572 0.254,4.572 0.1397,0 0.254,0.56475 0.254,1.25501 0,0.69025 0.1143,1.32565 0.254,1.41199 0.1397,0.0863 0.253997,0.72173 0.253997,1.41199 0,0.69025 0.1143,1.25501 0.254,1.25501 0.1397,0 0.254,0.33615 0.254,0.74701 0,0.41085 0.1143,0.81765 0.254,0.90399 0.1397,0.0863 0.254,0.42924 0.254,0.762 0,0.33276 0.1143,0.67566 0.254,0.762 0.1397,0.0863 0.254,0.42199 0.254,0.74589 0,0.3239 0.17145,0.7312 0.381,0.90511 0.20955,0.17391 0.381,0.5308 0.381,0.7931 0,0.26229 0.1143,0.4769 0.254,0.4769 0.1397,0 0.254,0.2286 0.254,0.508 0,0.2794 0.1143,0.508 0.254,0.508 0.1397,0 0.254,0.2286 0.254,0.508 0,0.2794 0.1143,0.508 0.254,0.508 0.1397,0 0.254,0.14186 0.254,0.31525 0,0.53703 1.75925,3.90704 2.29064,4.38794 0.27685,0.25055 0.50336,0.66643 0.50336,0.92418 0,0.25774 0.1143,0.46863 0.254,0.46863 0.1397,0 0.254,0.18274 0.254,0.40609 0,0.22335 0.3429,0.72641 0.762,1.11791 0.4191,0.3915 0.762,0.8479 0.762,1.01423 0,0.38005 0.8281,1.47012 2.2225,2.92561 0.59373,0.61973 1.08145,1.27267 1.08383,1.45098 0.005,0.35883 7.93405,8.325177 8.28642,8.325177 0.12156,0 0.7064,0.4572 1.29965,1.016 0.59325,0.5588 1.22127,1.01847 1.39562,1.02149 0.17434,0.003 0.65879,0.40307 1.07656,0.889 0.41777,0.48593 0.96069,0.88351 1.2065,0.88351 0.24581,0 0.44692,0.1143 0.44692,0.254 0,0.1397 0.20337,0.254 0.45193,0.254 0.24856,0 0.61669,0.2286 0.81807,0.508 0.20138,0.2794 0.50889,0.508 0.68335,0.508 0.17446,0 0.7242,0.2286 1.22165,0.508 0.49745,0.2794 1.18673,0.508 1.53173,0.508 0.345,0 0.62727,0.1143 0.62727,0.254 0,0.1397 0.44321,0.254 0.9849,0.254 0.5656,0 1.11952,0.1622 1.3011,0.381 0.19041,0.22943 0.74616,0.381 1.397,0.381 0.65084,0 1.20659,-0.15157 1.397,-0.381 0.17391,-0.20955 0.64511,-0.381 1.0471,-0.381 0.402,0 0.7309,-0.1143 0.7309,-0.254 0,-0.1397 0.20337,-0.254 0.45193,-0.254 0.24856,0 0.61669,-0.2286 0.81807,-0.508 0.20138,-0.2794 0.53469,-0.508 0.74068,-0.508 0.45105,0 1.79932,-1.24451 1.79932,-1.66085 0,-0.16269 0.3429,-0.65462 0.762,-1.09317 0.4191,-0.43854 0.762,-0.96985 0.762,-1.18067 0,-0.21082 0.10593,-0.38331 0.2354,-0.38331 0.27102,0 1.0346,-1.43477 1.0346,-1.94402 0,-0.18809 0.1143,-0.34198 0.254,-0.34198 0.1397,0 0.254,-0.33615 0.254,-0.74701 0,-0.41086 0.1143,-0.81765 0.254,-0.90399 0.1397,-0.0863 0.254,-0.42924 0.254,-0.762 0,-0.33276 0.1143,-0.67566 0.254,-0.762 0.1397,-0.0863 0.254,-0.49314 0.254,-0.903987 0,-0.41086 0.1143,-0.74701 0.254,-0.74701 0.1397,0 0.254,-0.3429 0.254,-0.762 0,-0.4191 0.1143,-0.762 0.254,-0.762 0.1397,0 0.254,-0.22185 0.254,-0.49301 0,-0.27116 0.10706,-0.55918 0.23792,-0.64005 0.30631,-0.18931 1.03208,-1.64063 1.03208,-2.06385 0,-0.60663 -1.02489,-0.69933 -1.54613,-0.13985 -0.26723,0.28683 -0.48587,0.65577 -0.48587,0.81985 0,0.16408 -0.20297,0.48318 -0.45105,0.70912 -0.63276,0.57629 -1.32695,1.71667 -1.32695,2.17985 0,0.21447 -0.1143,0.38994 -0.254,0.38994 -0.1397,0 -0.254,0.17961 -0.254,0.39914 0,0.21953 -0.14612,0.54527 -0.32472,0.72387 -0.26364,0.26364 -0.3831,0.26224 -0.635,-0.007 -0.38432,-0.41141 -0.43612,-5.17959 -0.0563,-5.17959 0.1397,0 0.254,-0.61642 0.254,-1.36983 0,-0.9833 0.1075,-1.41107 0.381,-1.51602 0.23744,-0.0911 0.381,-0.47852 0.381,-1.02819 0,-0.48509 0.1143,-0.95262 0.254,-1.03896 0.1397,-0.0863 0.254,-0.49314 0.254,-0.90399 0,-0.41086 0.1143,-0.74701 0.254,-0.74701 0.1397,0 0.254,-0.22185 0.254,-0.49301 0,-0.27116 0.1143,-0.56365 0.254,-0.64999 0.34312,-0.21206 0.32256,-1.07065 -0.0309,-1.28909 -0.31357,-0.19379 -1.74713,1.20158 -1.74713,1.70059 0,0.17163 -0.28575,0.0436 -0.635,-0.2845 -0.6418,-0.60295 -0.92231,-2.286 -0.381,-2.286 0.1397,0 0.254,-0.4572 0.254,-1.016 0,-0.5588 0.1143,-1.016 0.254,-1.016 0.1397,0 0.254,-0.33616 0.254,-0.74701 0,-0.41086 0.10484,-0.8118 0.23297,-0.891 0.12814,-0.0792 0.65611,-1.00033 1.17327,-2.04699 0.51716,-1.04665 1.04097,-1.903 1.16403,-1.903 0.12305,0 0.22373,-0.18368 0.22373,-0.40817 0,-0.45633 2.67313,-3.07265 3.3655,-3.29398 0.24448,-0.0781 0.4445,-0.24868 0.4445,-0.37897 0,-0.13028 0.17015,-0.23688 0.3781,-0.23688 0.78463,0 1.3999,-0.84016 1.3999,-1.91158 0,-1.18899 0.9598,-3.29645 1.90624,-4.18558 0.48625,-0.45681 0.63376,-0.85113 0.63376,-1.69412 0,-0.6043 -0.1143,-1.09872 -0.254,-1.09872 -0.1397,0 -0.254,-0.22186 -0.254,-0.49301 0,-0.27116 -0.1143,-0.56365 -0.254,-0.64999 -0.14816,-0.0916 -0.254,-1.52664 -0.254,-3.44399 0,-2.02201 0.0978,-3.28701 0.254,-3.28701 0.1397,0 0.254,-0.45046 0.254,-1.00101 0,-0.55056 0.1143,-1.07165 0.254,-1.15799 0.1397,-0.0863 0.254,-0.60744 0.254,-1.15799 0,-0.55056 0.1143,-1.00101 0.254,-1.00101 0.1397,0 0.26236,-0.20003 0.27257,-0.4445 0.0102,-0.24448 0.23711,-0.787403 0.50423,-1.206503 0.26711,-0.4191 0.58975,-0.995297 0.71697,-1.280438 0.12722,-0.285142 0.41467,-0.670612 0.63877,-0.856601 0.22411,-0.18599 0.40746,-0.477902 0.40746,-0.648695 0,-0.170793 0.2286,-0.517412 0.508,-0.770266 0.2794,-0.252853 0.508,-0.606332 0.508,-0.785508 0,-0.512667 7.38887,-7.723492 7.91419,-7.723492 0.43485,0 0.46781,0.285277 0.46781,4.04901 0,2.425353 0.10186,4.111959 0.254,4.20599 0.1397,0.08634 0.254,0.42924 0.254,0.762 0,0.332761 0.1143,0.675661 0.254,0.762 0.1397,0.08634 0.254,0.378835 0.254,0.649991 0,0.271155 0.1143,0.493009 0.254,0.493009 0.1397,0 0.254,0.2286 0.254,0.508 0,0.2794 0.10191,0.508 0.22647,0.508 0.12455,0 0.29818,0.28575 0.38584,0.635 0.0877,0.349253 0.27149,0.635003 0.40853,0.635003 0.13704,0 0.24916,0.2286 0.24916,0.508 0,0.2794 0.1143,0.508 0.254,0.508 0.1397,0 0.254,0.2286 0.254,0.508 0,0.2794 0.1143,0.508 0.254,0.508 0.1397,0 0.254,0.32518 0.254,0.72263 0,0.89899 0.8819,1.79908 1.3268,1.35417 0.16434,-0.16434 0.66925,-0.2988 1.12201,-0.2988 0.45277,0 0.89386,-0.1143 0.9802,-0.254 0.20777,-0.33619 6.142217,-0.33619 6.349997,0 0.0863,0.1397 0.69887,0.254 1.36119,0.254 0.66231,0 1.32744,0.12323 1.47806,0.27385 0.15062,0.15063 0.60211,0.23635 1.0033,0.1905 0.61628,-0.0704 0.74179,-0.21142 0.80904,-0.90885 0.0438,-0.45403 0.18665,-0.8255 0.3175,-0.8255 0.13085,0 0.23791,-0.2286 0.23791,-0.508 0,-0.2794 0.1143,-0.508 0.254,-0.508 0.1397,0 0.254,-0.2286 0.254,-0.508 0,-0.2794 0.1143,-0.508 0.254,-0.508 0.1397,0 0.254,-0.21908 0.254,-0.48684 0,-0.26775 0.0926,-0.524929 0.20567,-0.571496 0.30503,-0.125571 1.57233,-2.780972 1.57233,-3.294548 0,-0.243726 0.1143,-0.513779 0.254,-0.600119 0.1397,-0.08634 0.254,-0.721735 0.254,-1.41199 0,-0.690255 0.1143,-1.25501 0.254,-1.25501 0.15522,0 0.254,-1.185333 0.254,-3.048 0,-3.236023 0.14847,-3.573571 1.06138,-2.413 0.27472,0.34925 0.64911,0.635 0.83197,0.635 0.36655,0 5.47265,5.008636 5.47265,5.368187 0,0.12344 0.3429,0.583249 0.762,1.021797 0.4191,0.438548 0.762,0.937862 0.762,1.109587 0,0.171725 0.1771,0.459214 0.39357,0.638864 0.21646,0.179651 0.61621,0.815364 0.88833,1.412698 0.27212,0.597333 0.60936,1.156887 0.74943,1.243454 0.14006,0.08657 0.25467,0.493548 0.25467,0.904406 0,0.41085 0.1143,0.74701 0.254,0.74701 0.1397,0 0.254,0.3429 0.254,0.762 0,0.4191 0.1143,0.762 0.254,0.762 0.1397,0 0.254,0.51435 0.254,1.143 0,0.62865 0.1143,1.143 0.254,1.143 0.14941,0 0.254,0.889 0.254,2.159 0,1.27 0.10458,2.159 0.254,2.159 0.1397,0 0.254,0.17145 0.254,0.381 0,0.20955 -0.1143,0.381 -0.254,0.381 -0.1397,0 -0.254,0.62865 -0.254,1.397 0,0.76835 -0.1143,1.397 -0.254,1.397 -0.1397,0 -0.254,0.2286 -0.254,0.508 0,0.2794 -0.1143,0.508 -0.254,0.508 -0.1397,0 -0.254,0.279 -0.254,0.62001 0,0.341 0.1143,0.69065 0.254,0.77699 0.1397,0.0863 0.254,0.3536 0.254,0.59392 0,0.24031 0.2286,0.6017 0.508,0.80308 0.2794,0.20138 0.508,0.56951 0.508,0.81807 0,0.24856 0.1143,0.45193 0.254,0.45193 0.1397,0 0.254,0.2286 0.254,0.508 0,0.2794 0.10832,0.508 0.24072,0.508 0.1324,0 0.27528,0.599 0.3175,1.33112 0.0631,1.09308 0.16697,1.34829 0.58113,1.42715 0.2774,0.0528 0.73824,0.36821 1.02409,0.70088 0.28585,0.33267 0.63039,0.60787 0.76564,0.61156 0.4087,0.0112 3.67492,3.23736 3.67492,3.62989 0,0.20086 0.17284,0.50864 0.38409,0.68397 0.21125,0.17532 0.72932,1.04211 1.15125,1.92621 0.42194,0.88409 0.87775,1.67579 1.01291,1.75932 0.13516,0.0835 0.24575,0.48803 0.24575,0.89889 0,0.41085 0.1143,0.74701 0.254,0.74701 0.1397,0 0.254,0.3429 0.254,0.762 0,0.4191 0.1143,0.762 0.254,0.762 0.14816,0 0.254,0.84666 0.254,2.032 0,1.99813 -0.0106,2.032 -0.635,2.032 -0.46567,0 -0.635,-0.13547 -0.635,-0.508 0,-0.2794 -0.1143,-0.508 -0.254,-0.508 -0.1397,0 -0.254,-0.21637 -0.254,-0.48083 0,-0.53869 -0.5652,-0.84875 -1.143,-0.62702 -0.42353,0.16252 -0.52635,0.85385 -0.127,0.85385 0.1397,0 0.254,0.2286 0.254,0.508 0,0.2794 0.1143,0.508 0.254,0.508 0.1397,0 0.254,0.33615 0.254,0.74701 0,0.41085 0.1143,0.81765 0.254,0.90399 0.1397,0.0863 0.254,0.53629 0.254,0.99989 0,0.4636 0.17145,0.9852 0.381,1.15911 0.30517,0.25327 0.381,1.01772 0.381,3.8411 0,2.16259 -0.0974,3.5249 -0.25207,3.5249 -0.38974,0 -1.52593,-1.06799 -1.52593,-1.43434 0,-0.1797 -0.40005,-0.72678 -0.889,-1.21573 -0.48895,-0.48895 -0.889,-1.06426 -0.889,-1.27846 0,-0.22014 -0.22087,-0.38947 -0.508,-0.38947 -0.2794,0 -0.508,-0.1143 -0.508,-0.254 0,-0.1397 -0.23813,-0.254 -0.52917,-0.254 -0.29104,0 -0.48799,0.0857 -0.43767,0.1905 0.0503,0.10477 0.36702,0.79057 0.70376,1.524 0.33675,0.73342 0.70515,1.3335 0.81867,1.3335 0.11352,0 0.20641,0.3429 0.20641,0.762 0,0.4191 0.1143,0.762 0.254,0.762 0.14941,0 0.254,0.889 0.254,2.158997 0,1.27 0.10458,2.159 0.254,2.159 0.1397,0 0.254,0.28227 0.254,0.62727 0,0.345 0.2286,1.03428 0.508,1.53173 0.2794,0.49745 0.508,1.07242 0.508,1.27773 0,0.2053 0.1143,0.37327 0.254,0.37327 0.1397,0 0.254,0.16716 0.254,0.37148 0,0.49744 2.92488,3.43852 3.41959,3.43852 0.21472,0 0.39041,0.1143 0.39041,0.254 0,0.1397 0.173,0.254 0.38444,0.254 0.38747,0 0.57093,0.0735 2.11264,0.84602 1.1529,0.57773 5.32145,0.61007 5.53906,0.043 0.0833,-0.21718 0.46217,-0.381 0.88103,-0.381 0.40415,0 0.73483,-0.1143 0.73483,-0.254 0,-0.1397 0.28227,-0.254 0.62727,-0.254 0.345,0 1.03428,-0.2286 1.53173,-0.508 0.49744,-0.2794 1.07242,-0.508 1.27772,-0.508 0.2053,0 0.37328,-0.1143 0.37328,-0.254 0,-0.1397 0.2286,-0.254 0.508,-0.254 0.2794,0 0.508,-0.1143 0.508,-0.254 0,-0.1397 0.18352,-0.254 0.40783,-0.254 0.38695,0 1.32382,-0.64802 2.56759,-1.77595 0.30933,-0.28053 0.70938,-0.51487 0.889,-0.52076 0.17962,-0.006 0.89808,-0.5764 1.59658,-1.2678 0.6985,-0.69139 1.38258,-1.25807 1.52018,-1.25928 0.33176,-0.003 6.22607,-5.889487 6.22943,-6.221237 10e-4,-0.14188 0.57293,-0.85668 1.27,-1.58843 0.69706,-0.73175 1.26739,-1.47804 1.26739,-1.65842 0,-0.18039 0.23574,-0.49608 0.52388,-0.70155 0.28813,-0.20546 0.7012,-0.74505 0.91794,-1.19907 0.21673,-0.45403 0.49533,-0.8255 0.61912,-0.8255 0.12378,0 0.22506,-0.20337 0.22506,-0.45193 0,-0.24856 0.2286,-0.61669 0.508,-0.81807 0.2794,-0.20138 0.508,-0.56951 0.508,-0.81807 0,-0.24856 0.10127,-0.45193 0.22505,-0.45193 0.12379,0 0.41732,-0.37148 0.6523,-0.8255 0.23498,-0.45403 0.87665,-1.6714 1.42594,-2.70528 0.54929,-1.03388 0.99871,-2.03401 0.99871,-2.2225 0,-0.1885 0.1143,-0.34272 0.254,-0.34272 0.1397,0 0.254,-0.2286 0.254,-0.508 0,-0.2794 0.1143,-0.508 0.254,-0.508 0.1397,0 0.254,-0.2286 0.254,-0.508 0,-0.2794 0.1143,-0.508 0.254,-0.508 0.1397,0 0.254,-0.21461 0.254,-0.4769 0,-0.2623 0.17145,-0.61919 0.381,-0.7931 0.20955,-0.17391 0.381,-0.58121 0.381,-0.90511 0,-0.3239 0.1143,-0.65955 0.254,-0.74589 0.1397,-0.0863 0.254,-0.42924 0.254,-0.762 0,-0.33276 0.1143,-0.67566 0.254,-0.762 0.1397,-0.0863 0.254,-0.49314 0.254,-0.90399 0,-0.41086 0.1143,-0.74701 0.254,-0.74701 0.1397,0 0.254,-0.33616 0.254,-0.74701 0,-0.41086 0.1143,-0.81765 0.254,-0.90399 0.1397,-0.0863 0.254,-0.60744 0.254,-1.15799 0,-0.55056 0.1143,-1.00101 0.254,-1.00101 0.1397,0 0.254,-0.56476 0.254,-1.25501 0,-0.69026 0.1143,-1.32565 0.254,-1.41199 0.15519,-0.0959 0.254,-2.07198 0.254,-5.08 0,-3.00803 -0.0988,-4.98409 -0.254,-5.08 -0.1397,-0.0863 -0.254,-0.72174 -0.254,-1.41199 0,-0.69026 -0.1143,-1.25501 -0.254,-1.25501 -0.1397,0 -0.254,-0.33616 -0.254,-0.74701 0,-0.41086 -0.1143,-0.81765 -0.254,-0.90399 -0.1397,-0.0863 -0.254,-0.42924 -0.254,-0.762 0,-0.33276 -0.1143,-0.67566 -0.254,-0.762 -0.1397,-0.0863 -0.254,-0.49314 -0.254,-0.90399 0,-0.41086 -0.1143,-0.74701 -0.254,-0.74701 -0.1397,0 -0.254,-0.22031 -0.254,-0.48957 0,-0.26926 -0.28575,-0.71433 -0.635,-0.989053 -0.84466,-0.664405 -0.80149,-0.826093 0.127,-0.47563 0.4191,0.158193 0.762,0.376864 0.762,0.485937 0,0.109072 0.2286,0.198313 0.508,0.198313 0.2794,0 0.508,0.114303 0.508,0.254003 0,0.1397 0.2286,0.254 0.508,0.254 0.2794,0 0.508,0.1143 0.508,0.254 0,0.1397 0.21088,0.254 0.46863,0.254 0.25775,0 0.67551,0.2286 0.92837,0.508 0.25285,0.2794 0.67061,0.508 0.92836,0.508 0.25775,0 0.46864,0.1143 0.46864,0.254 0,0.1397 0.20336,0.254 0.45192,0.254 0.24856,0 0.62004,0.23574 0.8255,0.52388 0.20547,0.28813 0.74505,0.70121 1.19908,0.91794 0.45402,0.21673 0.8255,0.49534 0.8255,0.61912 0,0.12378 0.20336,0.22506 0.45192,0.22506 0.24856,0 0.61669,0.2286 0.81808,0.508 0.20138,0.2794 0.52753,0.508 0.72477,0.508 0.19725,0 0.5435,0.21225 0.76943,0.47166 0.22594,0.25942 0.66295,0.55128 0.97114,0.64858 0.30819,0.0973 0.84373,0.5137 1.1901,0.92533 0.34637,0.41164 0.79087,0.74843 0.98779,0.74843 0.19692,0 0.56491,0.2286 0.81776,0.508 0.25286,0.2794 0.64205,0.51111 0.86487,0.51492 0.22283,0.004 0.85235,0.51816 1.39894,1.143 0.54659,0.62484 1.11871,1.13608 1.27138,1.13608 0.15266,0 0.76296,0.4572 1.35621,1.016 0.59325,0.5588 1.20316,1.016 1.35536,1.016 0.15219,0 0.73707,0.51435 1.29973,1.143 0.56265,0.62865 1.18574,1.143 1.38464,1.143 0.1989,0 1.32015,0.97155 2.49167,2.159 1.17151,1.18745 2.25385,2.159 2.40519,2.159 0.35967,0 3.31701,2.93135 3.31701,3.28785 0,0.15082 0.85725,1.13985 1.905,2.19785 1.04775,1.058 1.905,2.03715 1.905,2.17588 0,0.13874 0.4572,0.69152 1.016,1.22842 0.5588,0.53689 1.016,1.11415 1.016,1.2828 0,0.27175 0.6913,1.16495 2.29292,2.96262 0.2756,0.30933 0.50108,0.72024 0.50108,0.91313 0,0.1929 0.2286,0.55759 0.508,0.81045 0.2794,0.25285 0.508,0.64312 0.508,0.86727 0,0.22414 0.2286,0.55029 0.508,0.72478 0.2794,0.17449 0.508,0.46033 0.508,0.6352 0,0.17487 0.28575,0.62611 0.635,1.00276 0.34925,0.37665 0.635,0.86126 0.635,1.0769 0,0.21565 0.1143,0.39209 0.254,0.39209 0.1397,0 0.254,0.2286 0.254,0.508 0,0.2794 0.1143,0.508 0.254,0.508 0.1397,0 0.254,0.2286 0.254,0.508 0,0.2794 0.1143,0.508 0.254,0.508 0.1397,0 0.254,0.14186 0.254,0.31525 0,0.41756 1.75474,3.95839 2.05303,4.14275 0.12814,0.0792 0.23297,0.36583 0.23297,0.63699 0,0.27116 0.1143,0.49301 0.254,0.49301 0.1397,0 0.254,0.3429 0.254,0.762 0,0.4191 0.1143,0.762 0.254,0.762 0.1397,0 0.254,0.22185 0.254,0.493007 0,0.27115 0.1143,0.56365 0.254,0.64999 0.1397,0.0863 0.254,0.42924 0.254,0.762 0,0.33276 0.1143,0.67566 0.254,0.762 0.1397,0.0863 0.254,0.49313 0.254,0.90399 0,0.41086 0.1143,0.74701 0.254,0.74701 0.1397,0 0.254,0.33615 0.254,0.74701 0,0.41085 0.1143,0.81765 0.254,0.90399 0.1397,0.0863 0.254,0.42199 0.254,0.74589 0,0.3239 0.17145,0.7312 0.381,0.90511 0.2188,0.18159 0.381,0.7355 0.381,1.3011 0,0.5417 0.1143,0.9849 0.254,0.9849 0.1397,0 0.254,0.5715 0.254,1.27 0,0.6985 0.1143,1.27 0.254,1.27 0.1397,0 0.254,0.51435 0.254,1.143 0,0.62865 0.1143,1.143 0.254,1.143 0.14084,0 0.254,0.67234 0.254,1.50901 0,0.82995 0.1143,1.57965 0.254,1.66599 0.1397,0.0863 0.254,0.94359 0.254,1.905 0,0.96141 0.1143,1.81866 0.254,1.905 0.1397,0.0863 0.254,1.05789 0.254,2.159 0,1.10111 0.1143,2.07266 0.254,2.159 0.15163,0.0937 0.254,1.74096 0.254,4.08696 0,3.25901 0.065,3.95495 0.381,4.07619 0.32357,0.12416 0.381,1.03726 0.381,6.05692 0,4.94411 -0.0623,5.96244 -0.381,6.22693 -0.2957,0.24541 -0.381,0.93139 -0.381,3.06411 0,1.55795 -0.10999,2.81589 -0.254,2.90489 -0.1397,0.0863 -0.254,0.82929 -0.254,1.651 0,0.82171 -0.1143,1.56466 -0.254,1.651 -0.1397,0.0863 -0.254,0.72174 -0.254,1.41199 0,0.69026 -0.1143,1.25501 -0.254,1.25501 -0.1397,0 -0.254,0.45045 -0.254,1.00101 0,0.55056 -0.1143,1.07165 -0.254,1.15799 -0.1397,0.0863 -0.254,0.49314 -0.254,0.90399 0,0.41086 -0.1143,0.74701 -0.254,0.74701 -0.1397,0 -0.254,0.2286 -0.254,0.508 0,0.2794 -0.1143,0.508 -0.254,0.508 -0.1397,0 -0.254,0.33615 -0.254,0.74701 0,0.41086 -0.10483,0.8118 -0.23297,0.89099 -0.29829,0.18436 -2.05303,3.72519 -2.05303,4.14275 0,0.17339 -0.1143,0.31525 -0.254,0.31525 -0.1397,0 -0.254,0.17526 -0.254,0.38947 0,0.2142 -0.41487,0.80434 -0.92195,1.31141 -0.72395,0.72396 -1.01033,0.86658 -1.3335,0.6641 -0.50227,-0.3147 -0.68262,-1.3065 -0.30605,-1.68307 0.17739,-0.17739 0.2755,-1.88694 0.2755,-4.80016 0,-3.16085 0.095,-4.67672 0.3151,-5.0292 0.2508,-0.40159 0.2508,-0.60751 0,-1.0091 -0.17749,-0.28422 -0.3151,-1.33142 -0.3151,-2.39801 0,-1.0414 -0.1143,-1.9641 -0.254,-2.05044 -0.1397,-0.0863 -0.254,-0.42199 -0.254,-0.74589 0,-0.3239 -0.17145,-0.7312 -0.381,-0.90511 -0.20955,-0.17391 -0.381,-0.64511 -0.381,-1.0471 0,-0.402 -0.1143,-0.7309 -0.254,-0.7309 -0.1397,0 -0.254,-0.2286 -0.254,-0.508 0,-0.2794 -0.1143,-0.508 -0.254,-0.508 -0.1397,0 -0.254,-0.21088 -0.254,-0.46863 0,-0.25775 -0.2286,-0.67552 -0.508,-0.92837 -0.2794,-0.25285 -0.508,-0.59575 -0.508,-0.762 0,-0.16625 -0.2286,-0.50915 -0.508,-0.762 -0.2794,-0.25285 -0.508,-0.5882 -0.508,-0.7452 0,-0.36222 -3.09625,-3.4458 -3.45996,-3.4458 -0.14922,0 -0.47818,-0.2286 -0.73104,-0.508 -0.25285,-0.2794 -0.64538,-0.508 -0.87229,-0.508 -0.22691,0 -0.58067,-0.23411 -0.78613,-0.52025 -0.46355,-0.64554 -1.65346,-1.25775 -2.4446,-1.25775 -0.32779,0 -0.59598,-0.1143 -0.59598,-0.254 0,-0.1397 -0.2286,-0.254 -0.508,-0.254 -0.2794,0 -0.508,-0.1143 -0.508,-0.254 0,-0.1397 -0.51435,-0.254 -1.143,-0.254 -0.62865,0 -1.143,-0.1143 -1.143,-0.254 0,-0.158 -1.43433,-0.254 -3.795,-0.254 -2.25602,0 -3.85867,0.103 -3.952,0.254 -0.0863,0.1397 -0.49313,0.254 -0.90399,0.254 -0.41085,0 -0.74701,0.1143 -0.74701,0.254 0,0.1397 -0.32518,0.254 -0.72263,0.254 -0.40005,0 -0.92785,0.22677 -1.18237,0.508 -0.25285,0.2794 -0.58775,0.508 -0.74422,0.508 -0.34009,0 -3.69673,3.44082 -4.14705,4.25105 -0.17365,0.31243 -0.31572,0.85536 -0.31572,1.2065 0,0.35115 -0.1143,0.63845 -0.254,0.63845 -0.1397,0 -0.254,0.33615 -0.254,0.74701 0,0.41086 -0.1143,0.81765 -0.254,0.90399 -0.1397,0.0863 -0.254,0.59521 -0.254,1.13082 0,0.63131 -0.13401,1.02525 -0.381,1.12003 -0.25149,0.0965 -0.381,0.49429 -0.381,1.17018 0,0.56318 -0.1143,1.02397 -0.254,1.02397 -0.1397,0 -0.254,0.3429 -0.254,0.762 0,0.4191 -0.1143,0.762 -0.254,0.762 -0.1397,0 -0.254,0.33615 -0.254,0.74701 0,0.41086 -0.1143,0.81765 -0.254,0.90399 -0.1397,0.0863 -0.254,0.37884 -0.254,0.64999 0,0.27116 -0.1143,0.49301 -0.254,0.49301 -0.1397,0 -0.254,0.2286 -0.254,0.508 0,0.2794 -0.1143,0.508 -0.254,0.508 -0.1397,0 -0.254,0.2286 -0.254,0.508 0,0.2794 -0.1143,0.508 -0.254,0.508 -0.1397,0 -0.254,0.2146 -0.254,0.4769 0,0.26229 -0.17145,0.61919 -0.381,0.7931 -0.20955,0.17391 -0.381,0.47269 -0.381,0.66395 0,0.19126 -0.2286,0.49051 -0.508,0.665 -0.2794,0.17448 -0.508,0.51835 -0.508,0.76415 0,0.30736 -0.19828,0.4469 -0.635,0.4469 -0.53623,0 -0.635,-0.11853 -0.635,-0.762 0,-0.4191 -0.1143,-0.762 -0.254,-0.762 -0.1397,0 -0.254,-0.51435 -0.254,-1.143 0,-0.62865 -0.1143,-1.143 -0.254,-1.143 -0.1397,0 -0.254,-0.3429 -0.254,-0.762 0,-0.4191 -0.1143,-0.762 -0.254,-0.762 -0.1397,0 -0.254,-0.15208 -0.254,-0.33795 0,-0.63585 -1.18637,-2.68211 -1.99056,-3.43334 -0.4419,-0.41279 -0.80344,-0.90899 -0.80344,-1.10267 0,-0.44979 -2.31873,-2.74604 -2.77294,-2.74604 -0.18836,0 -0.55291,-0.24262 -0.8101,-0.53917 -0.50242,-0.5793 -2.6352,-1.74683 -3.19101,-1.74683 -0.18588,0 -0.33795,-0.1143 -0.33795,-0.254 0,-0.1397 -0.2286,-0.254 -0.508,-0.254 -0.2794,0 -0.508,-0.1143 -0.508,-0.254 0,-0.1397 -0.2286,-0.254 -0.508,-0.254 -0.2794,0 -0.508,-0.1143 -0.508,-0.254 0,-0.1397 -0.22186,-0.254 -0.49301,-0.254 -0.27116,0 -0.56366,-0.1143 -0.64999,-0.254 -0.0863,-0.1397 -0.48091,-0.254 -0.87682,-0.254 -0.40554,0 -0.78367,-0.16635 -0.86604,-0.381 -0.10332,-0.26924 -0.5234,-0.381 -1.43214,-0.381 -0.90875,0 -1.32883,0.11176 -1.43215,0.381 -0.0804,0.20955 -0.334,0.38661 -0.56353,0.39346 -0.22953,0.007 -0.87452,0.46324 -1.43332,1.01419 -0.5588,0.55095 -1.13388,1.00255 -1.27796,1.00354 -0.14407,0.001 -0.92124,0.66805 -1.72704,1.48235 -1.3668,1.38121 -2.71,3.50135 -2.71,4.27751 0,0.18587 -0.1143,0.33795 -0.254,0.33795 -0.1397,0 -0.254,0.3429 -0.254,0.762 0,0.4191 -0.1143,0.762 -0.254,0.762 -0.1397,0 -0.254,0.33615 -0.254,0.74701 0,0.41086 -0.1143,0.81765 -0.254,0.90399 -0.1397,0.0863 -0.254,0.48091 -0.254,0.87682 0,0.40554 -0.16636,0.78367 -0.381,0.86603 -0.20955,0.0804 -0.381,0.30725 -0.381,0.50408 0,0.52848 -0.81171,1.15285 -0.95299,0.73303 -0.0596,-0.17712 -0.26962,-0.48328 -0.46669,-0.68035 -0.19708,-0.19708 -0.35832,-0.53794 -0.35832,-0.75747 0,-0.21953 -0.1143,-0.39914 -0.254,-0.39914 -0.1397,0 -0.254,-0.2286 -0.254,-0.508 0,-0.2794 -0.1143,-0.508 -0.254,-0.508 -0.1397,0 -0.254,-0.16797 -0.254,-0.37327 0,-0.2053 -0.2286,-0.78028 -0.508,-1.27773 -0.2794,-0.49745 -0.508,-1.07242 -0.508,-1.27773 0,-0.2053 -0.1143,-0.37327 -0.254,-0.37327 -0.1397,0 -0.254,-0.17691 -0.254,-0.39313 0,-0.21622 -0.28575,-0.65795 -0.635,-0.98162 -0.34925,-0.32368 -0.635,-0.77542 -0.635,-1.00388 0,-0.22845 -0.1143,-0.41537 -0.254,-0.41537 -0.1397,0 -0.254,-0.17249 -0.254,-0.38331 0,-0.21082 -0.3429,-0.74213 -0.762,-1.18067 -0.4191,-0.43855 -0.762,-0.9335 -0.762,-1.09989 0,-0.42614 -1.92854,-2.16213 -2.40194,-2.16213 -0.21564,0 -0.39206,-0.1143 -0.39206,-0.254 0,-0.1397 -0.17962,-0.254 -0.39915,-0.254 -0.21953,0 -0.57059,-0.17145 -0.78014,-0.381 -0.2207,-0.2207 -0.8412,-0.381 -1.47476,-0.381 -0.66236,0 -1.21847,0.15027 -1.40995,0.381 -0.17392,0.20955 -0.4487,0.381 -0.61063,0.381 -0.38407,0 -3.19937,2.79358 -3.19937,3.17468 0,0.16102 -0.28575,0.56122 -0.635,0.88932 -0.71409,0.67085 -0.825,1.55812 -0.254,2.032 0.20955,0.17391 0.381,0.64511 0.381,1.0471 0,0.402 0.1143,0.7309 0.254,0.7309 0.1397,0 0.254,0.45045 0.254,1.00101 0,0.55056 0.1143,1.07165 0.254,1.15799 0.1397,0.0863 0.254,0.60744 0.254,1.15799 0,0.55056 0.1143,1.00101 0.254,1.00101 0.16062,0 0.254,1.81534 0.254,4.93801 0,3.01802 -0.0988,4.99905 -0.254,5.09499 -0.1397,0.0863 -0.254,0.60744 -0.254,1.15799 0,0.55056 -0.1143,1.00101 -0.254,1.00101 -0.1397,0 -0.254,0.2286 -0.254,0.508 0,0.2794 -0.1143,0.508 -0.254,0.508 -0.1397,0 -0.254,0.3289 -0.254,0.7309 0,0.40199 -0.17145,0.87319 -0.381,1.0471 -0.20955,0.17391 -0.381,0.45227 -0.381,0.61858 0,0.16631 -0.3429,0.6309 -0.762,1.03242 -0.4191,0.40152 -0.762,0.88011 -0.762,1.06352 0,0.18638 -0.28011,0.33348 -0.635,0.33348 -0.53623,0 -0.635,-0.11853 -0.635,-0.762 0,-0.4191 -0.1143,-0.762 -0.254,-0.762 -0.1397,0 -0.254,-0.3429 -0.254,-0.762 0,-0.4191 -0.1143,-0.762 -0.254,-0.762 -0.1397,0 -0.254,-0.32518 -0.254,-0.72263 0,-0.72025 -0.66145,-1.56337 -1.2265,-1.56337 -0.36218,0 -0.39884,1.17739 -0.0435,1.397 0.1397,0.0863 0.254,0.42924 0.254,0.762 0,0.33276 0.1143,0.67566 0.254,0.762 0.1397,0.0863 0.254,0.71499 0.254,1.397 0,0.68201 0.1143,1.31066 0.254,1.397 0.1397,0.0863 0.254,1.18252 0.254,2.43596 0,1.79145 0.0815,2.31026 0.381,2.42519 0.25001,0.0959 0.381,0.4924 0.381,1.15317 0,0.55641 -0.17048,1.17744 -0.381,1.38797 -0.2746,0.27459 -0.381,0.94342 -0.381,2.39485 0,1.17324 -0.10603,2.01386 -0.254,2.01386 -0.1397,0 -0.254,0.39657 -0.254,0.88127 0,0.48471 -0.2286,1.28828 -0.508,1.78573 -0.2794,0.49745 -0.508,1.16149 -0.508,1.47565 0,0.31416 -0.2286,0.73597 -0.508,0.93735 -0.2794,0.20138 -0.508,0.56951 -0.508,0.81807 0,0.24856 -0.1143,0.45193 -0.254,0.45193 -0.1397,0 -0.254,0.21089 -0.254,0.46863 0,0.25775 -0.22907,0.67594 -0.50904,0.92931 -0.27998,0.25337 -0.81604,1.09976 -1.19125,1.88087 -0.37522,0.7811 -0.92733,1.72079 -1.22691,2.0882 -0.51696,0.634 -0.55976,0.64387 -0.84075,0.19394 -0.19767,-0.31653 -0.29605,-2.03668 -0.29605,-5.1765 0,-2.96563 -0.0938,-4.70245 -0.254,-4.70245 -0.1397,0 -0.254,-0.45045 -0.254,-1.00101 0,-0.55055 -0.1143,-1.07165 -0.254,-1.15799 -0.1397,-0.0863 -0.254,-0.54354 -0.254,-1.016 0,-0.47246 -0.1143,-0.92966 -0.254,-1.016 -0.1397,-0.0863 -0.254,-0.42199 -0.254,-0.74589 0,-0.3239 -0.17145,-0.7312 -0.381,-0.90511 -0.20955,-0.17391 -0.381,-0.50557 -0.381,-0.73703 0,-0.23145 -0.2286,-0.58559 -0.508,-0.78697 -0.2794,-0.20138 -0.508,-0.51756 -0.508,-0.70262 0,-0.46361 -1.15943,-1.58338 -1.63946,-1.58338 -0.43438,0 -0.54265,0.89325 -0.13854,1.143 0.1397,0.0863 0.254,0.42782 0.254,0.75885 0,0.33102 0.17145,0.77331 0.381,0.98286 0.20955,0.20955 0.381,0.78922 0.381,1.28815 0,0.49893 0.1143,0.90714 0.254,0.90714 0.14328,0 0.254,0.71967 0.254,1.651 0,0.93133 0.11071,1.651 0.254,1.651 0.16256,0 0.254,2.286 0.254,6.35 0,4.064 -0.0914,6.35 -0.254,6.35 -0.14676,0 -0.254,0.80433 -0.254,1.905 0,1.10067 -0.10725,1.905 -0.254,1.905 -0.1397,0 -0.254,0.55751 -0.254,1.2389 0,0.79138 -0.13763,1.35312 -0.381,1.5551 -0.20955,0.17391 -0.381,0.69551 -0.381,1.15911 0,0.4636 -0.1143,0.91355 -0.254,0.99989 -0.1397,0.0863 -0.254,0.60744 -0.254,1.15799 0,0.55056 -0.1143,1.00101 -0.254,1.00101 -0.1397,0 -0.254,0.33616 -0.254,0.74701 0,0.41086 -0.1143,0.81765 -0.254,0.90399 -0.1397,0.0863 -0.254,0.49314 -0.254,0.90399 0,0.41086 -0.1143,0.74701 -0.254,0.74701 -0.1397,0 -0.254,0.3429 -0.254,0.762 0,0.4191 -0.1143,0.762 -0.254,0.762 -0.1397,0 -0.254,0.2286 -0.254,0.508 0,0.2794 -0.1143,0.508 -0.254,0.508 -0.1397,0 -0.254,0.22186 -0.254,0.49301 0,0.27116 -0.10707,0.55918 -0.23792,0.64005 -0.34154,0.21108 -1.03208,1.66205 -1.03208,2.1686 0,0.23628 -0.2286,0.63649 -0.508,0.88934 -0.2794,0.25285 -0.508,0.67062 -0.508,0.92837 0,0.25775 -0.1143,0.46863 -0.254,0.46863 -0.1397,0 -0.254,0.2286 -0.254,0.508 0,0.2794 -0.1143,0.508 -0.254,0.508 -0.1397,0 -0.254,0.2286 -0.254,0.508 0,0.2794 -0.1143,0.508 -0.254,0.508 -0.1397,0 -0.254,0.21089 -0.254,0.46863 0,0.25775 -0.23747,0.68354 -0.52772,0.94621 -0.29024,0.26266 -0.74178,0.94749 -1.00342,1.52183 -0.26165,0.57434 -0.65283,1.19125 -0.86929,1.3709 -0.21647,0.17965 -0.39357,0.54124 -0.39357,0.80353 0,0.33936 -0.18314,0.4769 -0.635,0.4769 -0.38356,0 -0.635,-0.14493 -0.635,-0.36601 z m -8.677997,-54.51788 c 0.0468,-0.33831 0.18963,-0.72369 0.3175,-0.85641 0.12787,-0.13271 0.2325,-1.01179 0.2325,-1.95351 0,-0.94171 0.1143,-1.78285 0.254,-1.86919 0.139697,-0.0863 0.253997,-0.49313 0.253997,-0.90399 0,-0.41086 0.1143,-0.74701 0.254,-0.74701 0.1397,0 0.254,-0.3429 0.254,-0.762 0,-0.4191 0.1143,-0.762 0.254,-0.762 0.1397,0 0.26235,-0.31432 0.27256,-0.6985 0.0102,-0.38417 0.23711,-1.0414 0.50423,-1.4605 0.26711,-0.4191 0.59883,-1.01917 0.73715,-1.3335 0.27673,-0.62888 0.29918,-0.63955 0.87828,-0.41732 0.23559,0.0904 0.40178,0.45192 0.40178,0.87401 0,0.3959 0.1143,0.79047 0.254,0.87681 0.1397,0.0863 0.254,0.60744 0.254,1.15799 0,0.55056 0.1143,1.00101 0.254,1.00101 0.1397,0 0.254,0.4572 0.254,1.016 0,0.5588 0.1143,1.016 0.254,1.016 0.1397,0 0.254,0.62865 0.254,1.397 0,1.30161 0.0412,1.397 0.60389,1.397 0.33215,0 0.75608,-0.18336 0.94207,-0.40746 0.18599,-0.2241 0.60003,-0.50702 0.9201,-0.62871 0.32006,-0.12169 0.58194,-0.37415 0.58194,-0.56102 0,-0.18687 0.35084,-0.67548 0.77964,-1.08579 0.42881,-0.41031 0.9557,-1.11649 1.17088,-1.56928 0.21518,-0.45279 0.49299,-0.76037 0.61735,-0.68351 0.12437,0.0769 0.22613,1.39389 0.22613,2.92673 0,2.22142 0.076,2.81614 0.37447,2.93068 0.44326,0.1701 1.14953,-0.46304 1.14953,-1.0305 0,-0.21953 0.1143,-0.39914 0.254,-0.39914 0.1397,0 0.254,-0.33615 0.254,-0.74701 0,-0.41085 0.10438,-0.81152 0.23196,-0.89037 0.34717,-0.21457 1.54604,-2.7142 1.54604,-3.2235 0,-0.24373 0.1143,-0.51378 0.254,-0.60012 0.1397,-0.0863 0.254,-0.37883 0.254,-0.64999 0,-0.27116 0.1143,-0.49301 0.254,-0.49301 0.1397,0 0.254,-0.3429 0.254,-0.762 0,-0.4191 0.1143,-0.762 0.254,-0.762 0.1397,0 0.254,-0.33615 0.254,-0.74701 0,-0.41085 0.1143,-0.81765 0.254,-0.90399 0.1397,-0.0863 0.254,-0.49313 0.254,-0.90399 0,-0.41086 0.1143,-0.74701 0.254,-0.74701 0.1397,0 0.254,-0.4432 0.254,-0.9849 0,-0.5656 0.1622,-1.11951 0.381,-1.3011 0.23103,-0.19174 0.381,-0.74795 0.381,-1.41311 0,-0.6033 0.1143,-1.16755 0.254,-1.25389 0.33624,-0.20781 0.32548,-1.06884 -0.016,-1.27989 -0.36841,-0.22769 -1.25399,0.61429 -1.25399,1.19226 0,0.25775 -0.1143,0.46863 -0.254,0.46863 -0.1397,0 -0.254,0.3429 -0.254,0.762 0,0.4191 -0.1143,0.762 -0.254,0.762 -0.1397,0 -0.254,0.2286 -0.254,0.508 0,0.2794 -0.1143,0.508 -0.254,0.508 -0.1397,0 -0.254,0.33615 -0.254,0.74701 0,0.41086 -0.10439,0.81152 -0.23197,0.89037 -0.39571,0.24456 -1.54603,2.74865 -1.54603,3.36549 0,0.32182 -0.10635,0.58513 -0.23634,0.58513 -0.12998,0 -0.28587,0.25718 -0.34641,0.5715 -0.0811,0.42132 -0.11916,0.35851 -0.14466,-0.23901 -0.019,-0.44578 -0.14889,-0.88115 -0.28859,-0.96749 -0.1397,-0.0863 -0.254,-0.49313 -0.254,-0.90399 0,-0.41086 -0.1143,-0.74701 -0.254,-0.74701 -0.1397,0 -0.254,-0.17961 -0.254,-0.39914 0,-0.44674 -0.59034,-1.12486 -0.97926,-1.12486 -0.31473,0 -1.05274,1.44135 -1.05274,2.05603 0,0.2497 -0.1143,0.52463 -0.254,0.61097 -0.1397,0.0863 -0.254,0.37884 -0.254,0.64999 0,0.27116 -0.1143,0.49301 -0.254,0.49301 -0.1397,0 -0.254,0.3429 -0.254,0.762 0,0.4191 -0.1143,0.762 -0.254,0.762 -0.1397,0 -0.254,0.20618 -0.254,0.45817 0,0.252 -0.40005,0.84592 -0.889,1.31983 l -0.889,0.86165 v -0.66983 c 0,-0.36841 -0.1143,-0.74048 -0.254,-0.82682 -0.1397,-0.0863 -0.254,-0.53629 -0.254,-0.99989 0,-0.4636 -0.17145,-0.9852 -0.381,-1.15911 -0.20955,-0.17391 -0.381,-0.58121 -0.381,-0.90511 0,-0.3239 -0.1143,-0.65955 -0.254,-0.74589 -0.1397,-0.0863 -0.254,-0.49313 -0.254,-0.90399 0,-0.41086 -0.1143,-0.74701 -0.254,-0.74701 -0.1397,0 -0.254,-0.55378 -0.254,-1.23063 0,-0.90806 -0.13316,-1.35114 -0.508,-1.69037 -0.49023,-0.44364 -0.52578,-0.44364 -1.016,0 -0.2794,0.25285 -0.508,0.67062 -0.508,0.92837 0,0.25775 -0.1143,0.46863 -0.254,0.46863 -0.1397,0 -0.254,0.2286 -0.254,0.508 0,0.2794 -0.1143,0.508 -0.254,0.508 -0.1397,0 -0.254,0.2286 -0.254,0.508 0,0.2794 -0.1143,0.508 -0.254,0.508 -0.1397,0 -0.254,0.16797 -0.254,0.37327 0,0.20531 -0.2286,0.78028 -0.508,1.27773 -0.2794,0.49745 -0.507997,1.07243 -0.507997,1.27773 0,0.2053 -0.10408,0.37327 -0.23128,0.37327 -0.33271,0 -1.54672,2.53119 -1.54672,3.22487 0,0.32182 -0.1143,0.58513 -0.254,0.58513 -0.1397,0 -0.254,0.4572 -0.254,1.016 0,0.65485 -0.11529,1.016 -0.32432,1.016 -0.36893,0 -3.45212,-3.13434 -3.93183,-3.99705 -0.17372,-0.31243 -0.31586,-0.74106 -0.31586,-0.9525 0,-0.21145 -0.1143,-0.38445 -0.254,-0.38445 -0.1397,0 -0.254,-0.2286 -0.254,-0.508 0,-0.2794 -0.1143,-0.508 -0.254,-0.508 -0.1397,0 -0.254,-0.33615 -0.254,-0.74701 0,-0.41085 -0.1143,-0.81765 -0.254,-0.90399 -0.1397,-0.0863 -0.254,-0.60743 -0.254,-1.15799 0,-0.55056 -0.1143,-1.00101 -0.254,-1.00101 -0.14083,0 -0.254,-0.67234 -0.254,-1.50901 0,-0.82995 -0.1143,-1.57965 -0.254,-1.66599 -0.1397,-0.0863 -0.25575,-0.63601 -0.25789,-1.22149 -0.002,-0.58548 -0.10946,-1.23141 -0.23849,-1.43541 -0.20078,-0.31742 -0.31008,-0.30259 -0.75811,0.10287 -0.44329,0.40116 -0.52351,0.77682 -0.52351,2.45141 0,1.0877 -0.1143,2.04828 -0.254,2.13462 -0.1397,0.0863 -0.254,0.73573 -0.254,1.44309 0,1.11441 -0.0509,1.2439 -0.381,0.96991 -0.20955,-0.17391 -0.381,-0.50331 -0.381,-0.732 0,-0.22869 -0.2286,-0.55857 -0.508,-0.73305 -0.2794,-0.17449 -0.508,-0.46033 -0.508,-0.6352 0,-0.17487 -0.28575,-0.62611 -0.635,-1.00276 -0.34925,-0.37665 -0.635,-0.86126 -0.635,-1.0769 0,-0.21565 -0.1143,-0.39209 -0.254,-0.39209 -0.1397,0 -0.254,-0.3429 -0.254,-0.762 0,-0.4191 -0.1143,-0.762 -0.254,-0.762 -0.1397,0 -0.254,-0.51435 -0.254,-1.143 0,-0.62865 -0.1143,-1.143 -0.254,-1.143 -0.1397,0 -0.254,-0.3429 -0.254,-0.762 0,-0.59267 -0.11289,-0.762 -0.508,-0.762 -0.46248,0 -0.508,0.16933 -0.508,1.89001 0,1.03951 0.1143,1.96065 0.254,2.04699 0.1397,0.0863 0.25764,0.40741 0.26208,0.71349 0.004,0.30608 0.17589,0.77838 0.381,1.04956 0.20511,0.27117 0.37292,0.75695 0.37292,1.0795 0,0.32255 0.1143,0.58645 0.254,0.58645 0.1397,0 0.254,0.2286 0.254,0.508 0,0.2794 0.1143,0.508 0.254,0.508 0.1397,0 0.254,0.2286 0.254,0.508 0,0.2794 0.1143,0.508 0.254,0.508 0.1397,0 0.254,0.15389 0.254,0.34198 0,0.48487 0.70265,1.83256 1.14827,2.20239 0.20665,0.17151 0.37573,0.44686 0.37573,0.6119 0,0.16504 0.39252,0.68052 0.87226,1.1455 1.24187,1.20367 1.65639,0.94817 1.71212,-1.0553 0.0348,-1.25227 0.0653,-1.36326 0.1416,-0.51597 0.0535,0.59373 0.20496,1.0795 0.33663,1.0795 0.13166,0 0.24975,0.31433 0.2624,0.6985 0.0126,0.38418 0.35161,1.27 0.75324,1.9685 0.40163,0.6985 0.83657,1.5033 0.96653,1.78844 0.12997,0.28514 0.41966,0.67061 0.64376,0.8566 0.2241,0.18599 0.40746,0.48869 0.40746,0.67267 0,0.44584 3.99795,4.42929 4.44541,4.42929 0.19284,0 0.42499,0.12033 0.51588,0.26741 0.26747,0.43277 0.74687,0.12337 0.83872,-0.5413 z M 17.717279,153.60458 c 0.01103,-0.45402 0.0777,-0.68262 0.148167,-0.508 0.07046,0.17463 0.404339,0.3175 0.741947,0.3175 0.530185,0 0.613833,-0.1191 0.613833,-0.87401 0,-0.4807 -0.1143,-0.94465 -0.254,-1.03099 -0.1397,-0.0863 -0.254,-0.60743 -0.254,-1.15799 0,-0.55056 -0.1143,-1.00101 -0.254,-1.00101 -0.160679,0 -0.254,-1.82596 -0.254,-4.96987 v -4.96987 l -0.6985,0.0804 c -0.697876,0.0803 -0.698566,0.0824 -0.772787,2.36446 -0.04086,1.25625 -0.183733,2.39353 -0.3175,2.5273 -0.15495,0.15495 -0.243213,-2.29166 -0.243213,-6.74179 0,-4.55764 0.09306,-7.07806 0.26778,-7.25278 0.147279,-0.14728 0.233004,-0.94055 0.1905,-1.76283 -0.06125,-1.18491 -0.16949,-1.5126 -0.52178,-1.57965 -0.343733,-0.0654 -0.4445,0.089 -0.4445,0.68105 0,0.42109 -0.1143,0.83627 -0.254,0.92261 -0.1397,0.0863 -0.254,0.60743 -0.254,1.15799 0,0.55056 -0.1143,1.00101 -0.254,1.00101 -0.143282,0 -0.254,0.71967 -0.254,1.651 0,0.93133 -0.110718,1.651 -0.254,1.651 -0.163048,0 -0.254,2.45034 -0.254,6.84301 0,4.28802 0.09484,6.90162 0.254,6.99999 0.1397,0.0863 0.254,0.83604 0.254,1.66599 0,0.83667 0.113169,1.50901 0.254,1.50901 0.1397,0 0.254,0.33615 0.254,0.74701 0,0.41086 0.1143,0.81765 0.254,0.90399 0.1397,0.0863 0.254,0.32651 0.254,0.53371 0,0.61162 0.58469,1.09727 1.3335,1.10763 0.616692,0.009 0.700849,-0.087 0.718553,-0.81584 z m 168.019091,0.46264 c 0.19957,-0.19957 0.36286,-0.53572 0.36286,-0.74701 0,-0.21128 0.1143,-0.45479 0.254,-0.54113 0.1397,-0.0863 0.254,-0.49313 0.254,-0.90399 0,-0.41086 0.1143,-0.74701 0.254,-0.74701 0.14083,0 0.254,-0.67234 0.254,-1.50901 0,-0.82995 0.1143,-1.57965 0.254,-1.66599 0.15916,-0.0984 0.254,-2.71197 0.254,-6.99999 0,-4.39267 -0.091,-6.84301 -0.254,-6.84301 -0.14676,0 -0.254,-0.80433 -0.254,-1.905 0,-1.10067 -0.10725,-1.905 -0.254,-1.905 -0.1397,0 -0.254,-0.33615 -0.254,-0.74701 0,-0.41086 -0.1143,-0.81765 -0.254,-0.90399 -0.1397,-0.0863 -0.254,-0.50152 -0.254,-0.92261 0,-0.592 -0.10081,-0.7465 -0.4445,-0.68123 -0.33723,0.064 -0.46354,0.38358 -0.52337,1.32406 -0.0434,0.68181 0.0423,1.36087 0.1905,1.50902 0.15618,0.15618 0.26937,1.40893 0.26937,2.98146 0,2.10089 0.0859,2.78336 0.381,3.0283 0.26053,0.21623 0.381,0.79396 0.381,1.82724 0,1.00449 -0.12773,1.63877 -0.381,1.89205 -0.27507,0.27506 -0.381,0.94509 -0.381,2.40984 0,1.28789 -0.0928,1.97152 -0.254,1.87187 -0.1397,-0.0863 -0.254,-1.05789 -0.254,-2.159 0,-2.15507 -0.24459,-2.60312 -1.03201,-1.89052 -0.45165,0.40874 -0.49199,0.81698 -0.49199,4.97789 0,2.85242 -0.0942,4.53263 -0.254,4.53263 -0.1397,0 -0.254,0.5715 -0.254,1.27 0,0.6985 -0.1143,1.27 -0.254,1.27 -0.1397,0 -0.254,0.3429 -0.254,0.762 0,0.63646 0.10112,0.762 0.61383,0.762 0.33761,0 0.67148,-0.14287 0.74195,-0.3175 0.0705,-0.17462 0.13713,0.054 0.14816,0.508 0.0173,0.71212 0.10977,0.8255 0.6732,0.8255 0.35923,0 0.81643,-0.16329 1.016,-0.36286 z M -25.2853,148.63074 c 0.04582,-2.33961 -0.02083,-3.59866 -0.1905,-3.59866 -0.159924,0 -0.260973,-0.91465 -0.260973,-2.3622 0,-1.29921 -0.112387,-2.47459 -0.249748,-2.61195 -0.1478,-0.1478 -0.277404,-3.04436 -0.3175,-7.09593 -0.06222,-6.28705 -0.104055,-6.85316 -0.512252,-6.93167 -0.400698,-0.0771 -0.4445,0.17915 -0.4445,2.60013 0,1.62108 -0.100682,2.68562 -0.254,2.68562 -0.163176,0 -0.254,2.49767 -0.254,6.985 0,4.48733 0.09082,6.985 0.254,6.985 0.148009,0 0.254,0.84167 0.254,2.01701 0,1.10936 0.1143,2.08765 0.254,2.17399 0.1397,0.0863 0.254,0.56986 0.254,1.07449 0,0.93615 0.632978,1.93159 1.124459,1.76835 0.172412,-0.0573 0.298432,-1.41263 0.343014,-3.68918 z m 178.44264,2.79299 c 0.23644,-0.53589 0.42989,-1.2721 0.42989,-1.63601 0,-0.36391 0.1143,-0.7323 0.254,-0.81864 0.1397,-0.0863 0.254,-1.17219 0.254,-2.413 0,-1.24081 0.1143,-2.32666 0.254,-2.413 0.1397,-0.0863 0.254,-0.55028 0.254,-1.03099 0,-0.48071 -0.1143,-0.87401 -0.254,-0.87401 -0.15454,0 -0.254,-1.138 -0.254,-2.90601 0,-1.66335 -0.10862,-2.97314 -0.254,-3.06299 -0.1397,-0.0863 -0.254,-0.94359 -0.254,-1.905 0,-0.96141 -0.1143,-1.81866 -0.254,-1.905 -0.1397,-0.0863 -0.254,-0.76489 -0.254,-1.50789 0,-1.26849 -0.43448,-2.16397 -0.84888,-1.74957 -0.28054,0.28054 -0.19639,8.97246 0.0869,8.97246 0.16113,0 0.23644,1.55548 0.20597,4.2545 -0.0264,2.33998 -0.0893,3.59728 -0.13968,2.794 -0.0504,-0.80327 -0.20024,-1.4605 -0.33297,-1.4605 -0.13273,0 -0.24132,-0.4572 -0.24132,-1.016 0,-0.90891 -0.0656,-1.016 -0.62238,-1.016 -0.34231,0 -0.71863,0.17199 -0.83628,0.38221 -0.17346,0.30997 -0.40161,0.18996 -1.20717,-0.635 -1.03861,-1.06364 -1.87531,-1.2855 -2.41149,-0.63944 -0.38642,0.4656 -0.15966,1.14623 0.38189,1.14623 0.5071,0 1.64743,1.12443 1.64743,1.62446 0,0.20766 0.1143,0.4482 0.254,0.53454 0.1397,0.0863 0.254,0.42924 0.254,0.762 0,0.33276 0.1143,0.67566 0.254,0.762 0.1397,0.0863 0.254,0.49096 0.254,0.89915 0,0.57982 0.13891,0.77704 0.635,0.90155 0.38446,0.0965 0.635,0.34058 0.635,0.61867 0,0.25261 0.14287,0.51168 0.3175,0.57571 0.254,0.0931 0.254,0.18373 0,0.45297 -0.17883,0.18955 -0.3175,0.98002 -0.3175,1.80975 v 1.4732 h 0.84011 c 0.73011,0 0.89641,-0.12759 1.27,-0.97435 z m 74.89538,0.55398 c 0.29419,-0.26623 0.4645,-0.77296 0.4645,-1.38201 0,-0.5289 0.1143,-1.03228 0.254,-1.11862 0.1397,-0.0863 0.254,-1.06463 0.254,-2.17399 0,-1.17534 0.106,-2.01701 0.254,-2.01701 0.1634,0 0.254,-2.58233 0.254,-7.239 0,-4.65667 -0.0906,-7.239 -0.254,-7.239 -0.15164,0 -0.254,-0.97987 -0.254,-2.43162 0,-2.17908 -0.0462,-2.42275 -0.4445,-2.34613 -0.40874,0.0786 -0.44993,0.65665 -0.51211,7.18554 -0.0402,4.22098 -0.16894,7.20137 -0.3175,7.34992 -0.13744,0.13744 -0.24989,1.19858 -0.24989,2.35809 0,1.23613 -0.10506,2.1082 -0.254,2.1082 -0.15709,0 -0.254,1.34056 -0.254,3.51367 0,4.0011 0.094,4.3057 1.0595,3.43196 z M 49.701223,150.85909 c 0,-0.41086 0.1143,-0.74701 0.254,-0.74701 0.14357,0 0.254,-0.72571 0.254,-1.66914 0,-1.51741 0.0363,-1.63286 0.39915,-1.27 0.45533,0.45534 0.43932,0.45132 0.97708,0.24496 0.22097,-0.0848 0.40177,-0.37054 0.40177,-0.635 0,-0.26445 0.1143,-0.48082 0.254,-0.48082 0.1397,0 0.254,-0.16797 0.254,-0.37327 0,-0.2053 0.2286,-0.78028 0.508,-1.27773 0.2794,-0.49745 0.508,-1.02657 0.508,-1.17582 0,-0.37474 1.51102,-1.75282 2.21565,-2.02072 0.66574,-0.25311 0.78622,-1.18464 0.18315,-1.41606 -0.40574,-0.1557 -2.40868,0.72118 -3.25345,1.42435 -0.2605,0.21684 -0.59087,0.68 -0.73414,1.02925 l -0.26049,0.635 -0.1649,-0.635 c -0.11654,-0.44876 -0.36683,-0.65857 -0.85336,-0.71537 -0.64892,-0.0758 -0.68846,-0.021 -0.68846,0.9525 0,0.56808 -0.10859,1.03287 -0.24132,1.03287 -0.13273,0 -0.28257,0.65723 -0.33297,1.4605 -0.0504,0.80328 -0.11326,-0.45402 -0.13968,-2.794 -0.0305,-2.69902 0.0448,-4.2545 0.20597,-4.2545 0.15912,0 0.254,-1.57254 0.254,-4.20962 0,-3.87206 -0.0356,-4.20285 -0.4445,-4.12504 -0.35351,0.0673 -0.46035,0.39604 -0.52194,1.60613 -0.0426,0.83684 -0.18547,1.63011 -0.3175,1.76283 -0.13203,0.13271 -0.24006,0.84034 -0.24006,1.57251 0,0.73217 -0.1143,1.40185 -0.254,1.48819 -0.14695,0.0908 -0.254,1.46737 -0.254,3.26619 0,2.13854 -0.0991,3.21428 -0.3175,3.44576 -0.254,0.26924 -0.254,0.35983 0,0.45297 0.22607,0.0829 0.3175,0.874 0.3175,2.74726 0,1.4799 0.11112,2.69951 0.254,2.78782 0.1397,0.0863 0.254,0.36577 0.254,0.62096 0,0.42398 0.31229,1.15874 0.84439,1.98668 0.31812,0.495 0.67961,0.11329 0.67961,-0.71763 z m -29.617086,-3.29702 c 0.32034,-0.72607 0.375502,-1.119 0.188694,-1.34409 -0.14519,-0.17494 -0.298322,-1.11223 -0.340293,-2.08286 -0.06238,-1.44255 -0.157474,-1.78026 -0.520812,-1.84954 -0.345296,-0.0658 -0.4445,0.0895 -0.4445,0.69588 0,0.42934 -0.1143,0.78062 -0.254,0.78062 -0.147259,0 -0.254,0.81883 -0.254,1.9485 0,1.45666 0.10611,2.06575 0.420367,2.413 0.587252,0.64891 0.692067,0.60004 1.204544,-0.56151 z m 162.756583,0.60564 c 0.37481,-0.33919 0.46451,-0.80514 0.46451,-2.413 0,-1.15909 -0.10626,-1.99263 -0.254,-1.99263 -0.1397,0 -0.254,-0.35128 -0.254,-0.78062 0,-0.60641 -0.0992,-0.76171 -0.4445,-0.69588 -0.36369,0.0693 -0.4584,0.40754 -0.52094,1.86013 -0.042,0.97645 -0.17672,1.87576 -0.2993,1.99847 -0.12652,0.12665 -0.12756,0.40115 -0.002,0.635 0.12125,0.22654 0.28668,0.72623 0.36763,1.1104 0.17093,0.8112 0.30898,0.85192 0.943,0.27813 z m -203.643097,-4.19065 c 0.295905,-0.59316 0.399603,-1.58187 0.399603,-3.81 0,-1.83665 0.09896,-3.00898 0.254,-3.00898 0.1562,0 0.254,-1.26094 0.254,-3.27482 0,-2.67665 0.06959,-3.30154 0.381,-3.42103 0.267983,-0.10284 0.381,-0.52085 0.381,-1.40919 0,-0.69464 0.1143,-1.33362 0.254,-1.41996 0.1397,-0.0863 0.254,-0.65784 0.254,-1.27 0,-0.61216 0.1143,-1.18366 0.254,-1.27 0.1397,-0.0863 0.254,-0.49314 0.254,-0.90399 0,-0.41086 0.1143,-0.74701 0.254,-0.74701 0.1397,0 0.254,-0.45045 0.254,-1.00101 0,-0.55056 0.1143,-1.07165 0.254,-1.15799 0.1397,-0.0863 0.254,-0.49314 0.254,-0.90399 0,-0.41086 0.1143,-0.74701 0.254,-0.74701 0.1397,0 0.254,-0.2286 0.254,-0.508 0,-0.2794 0.1143,-0.508 0.254,-0.508 0.1397,0 0.254,-0.29391 0.254,-0.65314 0,-0.35923 0.17145,-0.8246 0.381,-1.03415 0.20955,-0.20955 0.381,-0.58982 0.381,-0.84506 0,-0.25524 0.3429,-1.11593 0.762,-1.91265 0.4191,-0.79672 0.762,-1.60843 0.762,-1.80379 0,-0.19537 0.1143,-0.35521 0.254,-0.35521 0.1397,0 0.254,-0.2286 0.254,-0.508 0,-0.2794 0.1143,-0.508 0.254,-0.508 0.1397,0 0.254,-0.2286 0.254,-0.508 0,-0.2794 0.1143,-0.508 0.254,-0.508 0.1397,0 0.262354,-0.20003 0.272565,-0.4445 0.01021,-0.24448 0.23157,-0.7874 0.49191,-1.2065 0.26034,-0.4191 0.894255,-1.59068 1.4087,-2.6035 0.5144438,-1.01283 1.0360348,-1.8415 1.1590898,-1.8415 0.123054,0 0.223735,-0.2286 0.223735,-0.508 0,-0.2794 0.1143,-0.508 0.254,-0.508 0.1397,0 0.254,-0.2286 0.254,-0.508 0,-0.2794 0.1143,-0.508 0.254,-0.508 0.1397,0 0.254,-0.2203 0.254,-0.48956 0,-0.26927 0.28575,-0.71434 0.635,-0.98906 0.34925,-0.27472 0.635,-0.682097 0.635,-0.905277 0,-0.22319 0.2286,-0.54856 0.508,-0.72305 0.2794,-0.17449 0.508,-0.51161 0.508,-0.74916 0,-0.23755 0.1143,-0.50255 0.254,-0.58889 0.1397,-0.0863 0.254,-0.3536 0.254,-0.59392 0,-0.24031 0.2286,-0.6017 0.508,-0.80308 0.2794,-0.20138 0.508,-0.51586 0.508,-0.69883 0,-0.18298 0.40005,-0.68394 0.889,-1.11324 0.48895,-0.42931 0.889,-0.95146 0.889,-1.16034 0,-0.20887 0.3429,-0.70009 0.762,-1.09159 0.4191,-0.3915 0.76200004,-0.84523 0.76200004,-1.00829 0,-0.16306 0.51435,-0.78929 1.143,-1.39162 0.62865,-0.60234 1.14299996,-1.22573 1.14299996,-1.38533 0,-0.38716 11.0458952,-11.45476 11.4322902,-11.45476 0.166043,0 0.633504,-0.35499 1.038803,-0.78886 l 0.736907,-0.78887 v 2.69387 c 0,1.62657 0.100633,2.69386 0.254,2.69386 0.143282,0 0.254,0.71966 0.254,1.651 0,0.93133 0.110718,1.651 0.254,1.651 0.1397,0 0.254,0.45045 0.254,1.00101 0,0.55055 0.1143,1.07165 0.254,1.15799 0.1397,0.0863 0.254,0.49313 0.254,0.90399 0,0.41086 0.1143,0.74701 0.254,0.74701 0.1397,0 0.254,0.33615 0.254,0.74701 0,0.41085 0.1143,0.81765 0.254,0.90399 0.1397,0.0863 0.254,0.43957 0.254,0.78496 0,0.34539 0.17145,0.69377 0.381,0.77419 0.20955,0.0804 0.381,0.36257 0.381,0.62702 0,0.26446 0.1143,0.48083 0.254,0.48083 0.1397,0 0.254,0.22185 0.254,0.49301 0,0.27115 0.1143,0.56365 0.254,0.64999 0.1397,0.0863 0.254,0.3536 0.254,0.59392 0,0.24031 0.2286,0.6017 0.508,0.80308 0.2794,0.20138 0.508,0.56951 0.508,0.81807 0,0.24856 0.1143,0.45193 0.254,0.45193 0.1397,0 0.254,0.17347 0.254,0.38549 0,0.21201 0.40005,0.77399 0.889,1.24882 0.48895,0.47484 0.889,0.99664 0.889,1.15957 0,0.37912 8.261027,8.636117 8.640327,8.636117 0.15644,0 0.77725,0.51435 1.37958,1.143 0.60234,0.62865 1.25508,1.143 1.45055,1.143 0.19547,0 0.52016,0.2286 0.72154,0.508 0.20138,0.2794 0.4948,0.508 0.65205,0.508 0.43808,0 1.79648,0.72674 2.14633,1.14827 0.1715,0.20665 0.5142,0.37573 0.76155,0.37573 0.24735,0 0.51551,0.17145 0.59593,0.381 0.0804,0.20955 0.30352,0.381 0.4958,0.381 0.19229,0 0.55649,0.2286 0.80934,0.508 0.25286,0.2794 0.67062,0.508 0.92837,0.508 0.25775,0 0.46863,0.1143 0.46863,0.254 0,0.1397 0.2286,0.254 0.508,0.254 0.2794,0 0.508,0.1143 0.508,0.254 0,0.1397 0.2286,0.254 0.508,0.254 0.2794,0 0.508,0.1143 0.508,0.254 0,0.1397 0.3429,0.254 0.762,0.254 0.4191,0 0.762,-0.11443 0.762,-0.25428 0,-0.30903 -2.00317,-2.28572 -2.31633,-2.28572 -0.1227,0 -0.6942,-0.4572 -1.27,-1.016 -0.57581,-0.5588 -1.18467,-1.016 -1.35302,-1.016 -0.16835,0 -0.57454,-0.28575 -0.90265,-0.635 -0.3281,-0.34925 -0.72669,-0.635 -0.88575,-0.635 -0.15906,0 -0.61772,-0.3429 -1.01925,-0.762 -0.40152,-0.4191 -0.86315,-0.762 -1.02585,-0.762 -0.16269,0 -0.65462,-0.3429 -1.09316,-0.762 -0.43855,-0.4191 -0.92316,-0.762 -1.07691,-0.762 -0.15375,0 -0.7399,-0.51435 -1.30256,-1.143 -0.56265,-0.62865 -1.18721,-1.143 -1.38791,-1.143 -0.42634,0 -7.70261,-7.299267 -7.70261,-7.726937 0,-0.15891 -0.2286,-0.45368 -0.507997,-0.65506 -0.2794,-0.20138 -0.508,-0.56951 -0.508,-0.81807 0,-0.24856 -0.100554,-0.45193 -0.223453,-0.45193 -0.122899,0 -0.77376,-1.11443 -1.446357,-2.4765 -0.672597,-1.36208 -1.314993,-2.5146 -1.427547,-2.56117 -0.112553,-0.0466 -0.204643,-0.30374 -0.204643,-0.5715 0,-0.26776 -0.1143,-0.48683 -0.254,-0.48683 -0.1397,0 -0.254,-0.3429 -0.254,-0.762 0,-0.4191 -0.1143,-0.762 -0.254,-0.762 -0.1397,0 -0.254,-0.33615 -0.254,-0.74701 0,-0.41086 -0.1143,-0.81765 -0.254,-0.90399 -0.1397,-0.0863 -0.254,-0.82929 -0.254,-1.651 0,-0.82171 -0.1143,-1.56466 -0.254,-1.651 -0.156249,-0.0966 -0.254,-2.20397 -0.254,-5.47599 0,-5.14968 -0.01617,-5.31901 -0.508,-5.31901 -0.2794,0 -0.508,0.1143 -0.508,0.254 0,0.1397 -0.2286,0.254 -0.508,0.254 -0.2794,0 -0.508,0.1143 -0.508,0.254 0,0.1397 -0.203367,0.254 -0.451927,0.254 -0.24856,0 -0.616693,0.2286 -0.818073,0.508 -0.20138,0.2794 -0.555903,0.508 -0.787828,0.508 -0.231925,0 -0.882036,0.51435 -1.44469,1.143 -0.562654,0.62865 -1.176339,1.14434 -1.363745,1.14599 -0.3682412,0.003 -5.0397372,4.64095 -5.0397372,5.00329 0,0.12075 -0.85725,1.09932 -1.905,2.17461 -1.04775,1.07529 -1.905,2.04322 -1.905,2.15097 0,0.10774 -0.45719996,0.68128 -1.01599996,1.27453 -0.5588,0.59325 -1.016,1.20403 -1.016,1.35729 0,0.15326 -0.51435004,0.76451 -1.14300004,1.35832 -0.62865,0.59382 -1.143,1.22243 -1.143,1.39693 0,0.17449 -0.3429,0.63757 -0.762,1.02907 -0.4191,0.3915 -0.762,0.84504 -0.762,1.00786 0,0.16283 -0.399058,0.71705 -0.886797,1.2316 -0.487738,0.51454 -0.887788,1.0607 -0.889,1.21367 -0.0012,0.15298 -0.230803,0.48502 -0.510203,0.73787 -0.2794,0.25285 -0.508,0.59575 -0.508,0.762 0,0.16625 -0.2286,0.50915 -0.508,0.762 -0.2794,0.25285 -0.508,0.64539 -0.508,0.87229 0,0.22691 -0.2286,0.57733 -0.508,0.77871 -0.2794,0.20138 -0.508,0.54428 -0.508,0.762 0,0.21772 -0.23411,0.56396 -0.520245,0.769427 -0.5540798,0.39786 -1.2577548,1.62344 -1.2577548,2.19059 0,0.18809 -0.1143,0.34198 -0.254,0.34198 -0.1397,0 -0.254,0.20337 -0.254,0.45193 0,0.24856 -0.2286,0.61669 -0.508,0.81807 -0.2794,0.20138 -0.508,0.50889 -0.508,0.68335 0,0.17446 -0.216865,0.70331 -0.481922,1.17522 -0.265057,0.47191 -0.537548,1.07546 -0.605535,1.34123 -0.08816,0.3446 -0.132066,0.28284 -0.153078,-0.2153 -0.01621,-0.38418 0.08484,-0.6985 0.224535,-0.6985 0.1397,0 0.254,-0.22185 0.254,-0.49301 0,-0.27116 0.1143,-0.56365 0.254,-0.64999 0.1397,-0.0863 0.254,-0.49314 0.254,-0.90399 0,-0.41086 0.1143,-0.74701 0.254,-0.74701 0.1397,0 0.254,-0.2286 0.254,-0.508 0,-0.2794 0.1143,-0.508 0.254,-0.508 0.1397,0 0.254,-0.2286 0.254,-0.508 0,-0.2794 0.112123,-0.508 0.249161,-0.508 0.137039,0 0.32088,-0.28575 0.408536,-0.635 0.08766,-0.34925 0.261284,-0.635 0.385839,-0.635 0.124555,0 0.226464,-0.228597 0.226464,-0.507997 0,-0.2794 0.1143,-0.508 0.254,-0.508 0.1397,0 0.2539998,-0.16797 0.2539998,-0.37327 0,-0.20531 0.2286,-0.78028 0.508,-1.27773 0.2794,-0.49745 0.508,-1.04719 0.508,-1.22165 0,-0.17446 0.2286,-0.48197 0.508,-0.68335 0.2794,-0.20138 0.508,-0.52449 0.508,-0.71802 0,-0.19353 0.28575,-0.57664 0.635,-0.85136 0.34925,-0.27472 0.635,-0.69456 0.635,-0.93298 0,-0.23842 0.2286,-0.59826 0.508,-0.79964 0.2794,-0.20138 0.508,-0.54428 0.508,-0.762 0,-0.21772 0.2286,-0.56062 0.508,-0.762 0.2794,-0.20138 0.508,-0.54709 0.508,-0.76825 0,-0.22115 0.40005,-0.78984 0.889,-1.26375 0.948405,-0.91923 1.114903,-1.45326 0.523813,-1.68008 -0.409552,-0.15716 -5.476813,4.74644 -5.476813,5.29993 0,0.1826 -0.2286,0.49677 -0.508,0.69815 -0.2794,0.20138 -0.508,0.5518 -0.508,0.77871 0,0.2269 -0.23747,0.62746 -0.5277118,0.89013 -0.290241,0.26266 -0.741783,0.94749 -1.003426,1.52183 -0.261643,0.57434 -0.652823,1.19124 -0.869288,1.37089 -0.216466,0.17965 -0.393574,0.54125 -0.393574,0.80354 0,0.2623 -0.1143,0.4769 -0.254,0.4769 -0.1397,0 -0.254,0.2286 -0.254,0.508 0,0.2794 -0.1143,0.508 -0.254,0.508 -0.1397,0 -0.254,0.17961 -0.254,0.399137 0,0.21953 -0.17145,0.5706 -0.381,0.78015 -0.20955,0.20955 -0.381,0.59795 -0.381,0.86313 0,0.26517 -0.2286,0.88913 -0.508,1.38658 -0.2794,0.49745 -0.508,1.12283 -0.508,1.38974 0,0.2669 -0.1143,0.55592 -0.254,0.64226 -0.1397,0.0863 -0.254,0.37883 -0.254,0.64999 0,0.27116 -0.1143,0.49301 -0.254,0.49301 -0.1397,0 -0.254,0.3429 -0.254,0.762 0,0.4191 -0.1143,0.762 -0.254,0.762 -0.1397,0 -0.254,0.33615 -0.254,0.74701 0,0.41085 -0.1143,0.81765 -0.254,0.90399 -0.1397,0.0863 -0.254,0.59521 -0.254,1.13081 0,0.63132 -0.134005,1.02526 -0.381,1.12004 -0.222723,0.0855 -0.381,0.46607 -0.381,0.91618 0,0.42348 -0.1143,0.76997 -0.254,0.76997 -0.1397,0 -0.254,0.45045 -0.254,1.00101 0,0.55055 -0.1143,1.07165 -0.254,1.15799 -0.1397,0.0863 -0.254,0.60743 -0.254,1.15799 0,0.55056 -0.1143,1.00101 -0.254,1.00101 -0.1397,0 -0.254,0.4572 -0.254,1.016 0,0.5588 -0.1143,1.016 -0.254,1.016 -0.1397,0 -0.254,0.62865 -0.254,1.397 0,0.76835 -0.1143,1.397 -0.254,1.397 -0.1397,0 -0.254,0.56475 -0.254,1.25501 0,0.69025 -0.1143,1.32565 -0.254,1.41199 -0.1397,0.0863 -0.254,0.93634 -0.254,1.88889 0,1.22961 -0.1105,1.82362 -0.381,2.04811 -0.291327,0.24178 -0.381,0.90317 -0.381,2.81011 0,1.38862 -0.112571,2.56348 -0.254,2.65089 -0.151775,0.0938 -0.254,1.75219 -0.254,4.12064 0,3.17043 0.08603,4.15865 0.429882,4.93801 0.236435,0.53589 0.513814,0.97435 0.616397,0.97435 0.102583,0 0.366336,-0.36046 0.586118,-0.80102 z m 245.451087,-5.0233 c 0.0436,-3.62512 -0.0257,-5.79151 -0.1905,-5.9563 -0.14244,-0.14244 -0.25899,-1.25807 -0.25899,-2.47919 0,-1.22112 -0.1143,-2.29085 -0.254,-2.37719 -0.1397,-0.0863 -0.254,-0.76489 -0.254,-1.50789 0,-0.89094 -0.12972,-1.45857 -0.381,-1.66711 -0.24337,-0.20198 -0.381,-0.76372 -0.381,-1.5551 0,-0.6814 -0.1143,-1.2389 -0.254,-1.2389 -0.1397,0 -0.254,-0.62865 -0.254,-1.397 0,-0.76835 -0.1143,-1.397 -0.254,-1.397 -0.1397,0 -0.254,-0.45045 -0.254,-1.00101 0,-0.55056 -0.1143,-1.07165 -0.254,-1.15799 -0.1397,-0.0863 -0.254,-0.60744 -0.254,-1.15799 0,-0.55056 -0.1143,-1.00101 -0.254,-1.00101 -0.1397,0 -0.254,-0.45045 -0.254,-1.00101 0,-0.55056 -0.1143,-1.07165 -0.254,-1.15799 -0.1397,-0.0863 -0.254,-0.42924 -0.254,-0.762 0,-0.33276 -0.1143,-0.67566 -0.254,-0.762 -0.1397,-0.0863 -0.254,-0.42199 -0.254,-0.74589 0,-0.3239 -0.17145,-0.7312 -0.381,-0.90511 -0.20955,-0.17391 -0.381,-0.64511 -0.381,-1.0471 0,-0.402 -0.1143,-0.7309 -0.254,-0.7309 -0.1397,0 -0.254,-0.3429 -0.254,-0.762 0,-0.4191 -0.1143,-0.762 -0.254,-0.762 -0.1397,0 -0.254,-0.33615 -0.254,-0.74701 0,-0.41086 -0.1143,-0.81765 -0.254,-0.90399 -0.1397,-0.0863 -0.254,-0.37884 -0.254,-0.64999 0,-0.27116 -0.1143,-0.49301 -0.254,-0.49301 -0.1397,0 -0.254,-0.3429 -0.254,-0.762 0,-0.4191 -0.1143,-0.762 -0.254,-0.762 -0.1397,0 -0.254,-0.15389 -0.254,-0.34198 0,-0.50925 -0.76358,-1.944017 -1.0346,-1.944017 -0.12947,0 -0.2354,-0.2286 -0.2354,-0.508 0,-0.2794 -0.1143,-0.508 -0.254,-0.508 -0.1397,0 -0.254,-0.22185 -0.254,-0.49301 0,-0.27116 -0.1143,-0.56365 -0.254,-0.64999 -0.1397,-0.0863 -0.254,-0.3536 -0.254,-0.59392 0,-0.24031 -0.2286,-0.6017 -0.508,-0.80308 -0.2794,-0.20138 -0.508,-0.56951 -0.508,-0.81807 0,-0.24856 -0.1143,-0.45193 -0.254,-0.45193 -0.1397,0 -0.254,-0.17691 -0.254,-0.39313 0,-0.21622 -0.28575,-0.65795 -0.635,-0.98162 -0.34925,-0.32368 -0.635,-0.72723 -0.635,-0.89679 0,-0.16956 -0.4572,-0.74757 -1.016,-1.28446 -0.5588,-0.5369 -1.016,-1.13822 -1.016,-1.33629 0,-0.42116 -1.87061,-2.21971 -2.30864,-2.21971 -0.16432,0 -0.50878,-0.24214 -0.76546,-0.53809 -0.31066,-0.3582 -0.61783,-0.47951 -0.91879,-0.36286 -0.4299,0.16662 -0.43027,0.19131 -0.008,0.50259 0.24448,0.18005 0.4445,0.49707 0.4445,0.70449 0,0.20743 0.2286,0.58402 0.508,0.83687 0.2794,0.25285 0.508,0.62476 0.508,0.82646 0,0.2017 0.3429,0.68704 0.762,1.07854 0.4191,0.3915 0.762,0.84953 0.762,1.01785 0,0.16832 0.28575,0.53081 0.635,0.80553 0.34925,0.27472 0.635,0.69456 0.635,0.93298 0,0.23842 0.2286,0.59826 0.508,0.79964 0.2794,0.20138 0.508,0.56951 0.508,0.81807 0,0.24856 0.1143,0.45193 0.254,0.45193 0.1397,0 0.254,0.2146 0.254,0.4769 0,0.26229 0.17711,0.62388 0.39358,0.80353 0.21646,0.17966 0.62049,0.79373 0.89783,1.36461 0.27734,0.57088 0.72053,1.38086 0.98486,1.799957 0.26433,0.4191 0.48896,0.96202 0.49917,1.2065 0.0102,0.24447 0.13286,0.4445 0.27256,0.4445 0.1397,0 0.254,0.3429 0.254,0.762 0,0.4191 0.1143,0.762 0.254,0.762 0.1397,0 0.254,0.22185 0.254,0.49301 0,0.27115 0.1143,0.56365 0.254,0.64999 0.1397,0.0863 0.254,0.42924 0.254,0.762 0,0.33276 0.1143,0.67566 0.254,0.762 0.1397,0.0863 0.254,0.27128 0.254,0.41098 0,0.1397 -0.10706,0.18783 -0.23791,0.10696 -0.31237,-0.19305 -1.03209,-1.6442 -1.03209,-2.08096 0,-0.18809 -0.1143,-0.34198 -0.254,-0.34198 -0.1397,0 -0.254,-0.2286 -0.254,-0.508 0,-0.2794 -0.1143,-0.508 -0.254,-0.508 -0.1397,0 -0.254,-0.2286 -0.254,-0.508 0,-0.2794 -0.10088,-0.508 -0.22419,-0.508 -0.1233,0 -0.51806,-0.60008 -0.87723,-1.3335 -0.35917,-0.73343 -0.88694,-1.501607 -1.17281,-1.707067 -0.28587,-0.20547 -0.51977,-0.55923 -0.51977,-0.78614 0,-0.2269 -0.2286,-0.61944 -0.508,-0.87229 -0.2794,-0.25285 -0.508,-0.64539 -0.508,-0.87229 0,-0.22691 -0.2286,-0.57733 -0.508,-0.77871 -0.2794,-0.20138 -0.508,-0.50686 -0.508,-0.67885 0,-0.17198 -0.40005,-0.70122 -0.889,-1.17608 -0.48895,-0.47486 -0.889,-1.00601 -0.889,-1.18032 0,-0.17432 -0.3429,-0.63725 -0.762,-1.02875 -0.4191,-0.3915 -0.762,-0.857 -0.762,-1.03445 0,-0.17745 -0.51435,-0.81546 -1.143,-1.41782 -0.62865,-0.60235 -1.143,-1.21128 -1.143,-1.35317 0,-0.14189 -0.4572,-0.72909 -1.016,-1.3049 -0.5588,-0.5758 -1.01679,-1.17601 -1.01777,-1.33379 -9.7e-4,-0.15778 -0.74392,-1.01477 -1.651,-1.90442 -0.90707,-0.88964 -1.64923,-1.74524 -1.64923,-1.90133 0,-0.39103 -6.13938,-6.51412 -6.53145,-6.51412 -0.17385,0 -0.79019,-0.51435 -1.36966,-1.143 -0.57947,-0.62865 -1.26763,-1.143 -1.52923,-1.143 -0.26161,0 -0.47565,-0.1143 -0.47565,-0.254 0,-0.1397 -0.2286,-0.254 -0.508,-0.254 -0.2794,0 -0.508,-0.1212 -0.508,-0.26933 0,-0.15592 -0.40113,-0.23614 -0.9525,-0.1905 l -0.9525,0.0788 -0.0686,5.3975 c -0.042,3.30935 -0.16486,5.3975 -0.3175,5.3975 -0.13692,0 -0.24894,0.67905 -0.24894,1.50901 0,0.82995 -0.1143,1.57965 -0.254,1.66599 -0.1397,0.0863 -0.254,0.49313 -0.254,0.90399 0,0.41086 -0.1143,0.74701 -0.254,0.74701 -0.1397,0 -0.254,0.3429 -0.254,0.762 0,0.4191 -0.1143,0.762 -0.254,0.762 -0.1397,0 -0.254,0.22185 -0.254,0.49301 0,0.27115 -0.1143,0.56365 -0.254,0.64999 -0.1397,0.0863 -0.254,0.36661 -0.254,0.62281 0,0.25621 -0.17145,0.53163 -0.381,0.61204 -0.20955,0.0804 -0.381,0.30725 -0.381,0.50408 0,0.19683 -0.16908,0.49819 -0.37573,0.6697 -0.40036,0.33226 -1.14827,1.7004 -1.14827,2.10049 0,0.13203 -0.3429,0.56038 -0.762,0.95188 -0.4191,0.3915 -0.762,0.84782 -0.762,1.01405 0,0.38585 -7.76647,8.129947 -8.15344,8.129947 -0.15922,0 -0.78232,0.51435 -1.38465,1.143 -0.60234,0.62865 -1.21832,1.143 -1.36885,1.143 -0.15053,0 -0.6325,0.3429 -1.07105,0.762 -0.43855,0.4191 -0.93414,0.762 -1.10132,0.762 -0.16718,0 -0.51084,0.2286 -0.76369,0.508 -0.25286,0.2794 -0.56775,0.508 -0.69977,0.508 -0.13202,0 -0.64008,0.40005 -1.12903,0.889 -0.48895,0.48895 -1.02331,0.889 -1.18746,0.889 -0.16415,0 -1.14547,0.8527 -2.18071,1.8949 -1.6191,1.62998 -1.81565,1.92045 -1.40587,2.07769 0.28793,0.11049 0.51589,0.0642 0.57627,-0.11689 0.0549,-0.16484 0.31897,-0.2997 0.58673,-0.2997 0.26776,0 0.48684,-0.1143 0.48684,-0.254 0,-0.1397 0.21088,-0.254 0.46863,-0.254 0.25775,0 0.67551,-0.2286 0.92837,-0.508 0.25285,-0.2794 0.60517,-0.508 0.78293,-0.508 0.17776,0 0.54797,-0.28575 0.82269,-0.635 0.27472,-0.34925 0.66907,-0.635 0.87633,-0.635 0.20726,0 0.52088,-0.17356 0.69694,-0.38569 0.17605,-0.21213 0.70439,-0.56805 1.1741,-0.79094 0.4697,-0.22289 0.85401,-0.50653 0.85401,-0.63031 0,-0.12378 0.20002,-0.2261 0.4445,-0.22737 0.24447,-10e-4 0.71454,-0.34416 1.04459,-0.762 0.33005,-0.41783 0.75566,-0.75969 0.94581,-0.75969 0.19015,0 0.86008,-0.51435 1.48873,-1.143 0.62865,-0.62865 1.2705,-1.143 1.42634,-1.143 0.38079,0 8.11203,-7.765417 8.11203,-8.147887 0,-0.16562 0.40005,-0.67842 0.889,-1.13956 0.48895,-0.46114 0.889,-1.01756 0.889,-1.23649 0,-0.21893 0.1143,-0.39806 0.254,-0.39806 0.1397,0 0.254,-0.2286 0.254,-0.508 0,-0.2794 0.0931,-0.508 0.20687,-0.508 0.25987,0 1.31713,-1.95618 1.31713,-2.437 0,-0.19635 0.10592,-0.357 0.23539,-0.357 0.33402,0 1.03461,-1.4884 1.03461,-2.19802 0,-0.32779 0.1143,-0.59598 0.254,-0.59598 0.1397,0 0.254,-0.2286 0.254,-0.508 0,-0.2794 0.1143,-0.508 0.254,-0.508 0.1397,0 0.254,-0.33615 0.254,-0.74701 0,-0.41086 0.1143,-0.81765 0.254,-0.90399 0.1397,-0.0863 0.254,-0.60744 0.254,-1.15799 0,-0.55056 0.1143,-1.00101 0.254,-1.00101 0.14083,0 0.254,-0.67234 0.254,-1.50901 0,-0.82996 0.1143,-1.57965 0.254,-1.66599 0.14773,-0.0913 0.254,-1.50478 0.254,-3.37842 v -3.22144 l 5.84199,5.83786 c 3.2131,3.21082 5.842,5.9875 5.842,6.1704 0,0.1829 0.62865,0.91234 1.397,1.62099 0.76835,0.70864 1.397,1.45704 1.397,1.66312 0,0.20607 0.3429,0.69499 0.762,1.08649 0.4191,0.3915 0.762,0.83845 0.762,0.99322 0,0.15477 0.3429,0.64022 0.762,1.07876 0.4191,0.43855 0.762,0.88952 0.762,1.00215 0,0.11263 0.28575,0.49053 0.635,0.83978 0.34925,0.34925 0.635,0.78641 0.635,0.97147 0,0.18506 0.2286,0.50124 0.508,0.70262 0.2794,0.20138 0.508,0.5518 0.508,0.77871 0,0.2269 0.2286,0.61944 0.508,0.87229 0.2794,0.25285 0.508,0.59575 0.508,0.762 0,0.16625 0.22945,0.50991 0.50989,0.76371 0.54108,0.48966 1.26811,1.789527 1.26811,2.267237 0,0.15725 0.2286,0.45067 0.508,0.65205 0.2794,0.20138 0.508,0.56951 0.508,0.81807 0,0.24856 0.1143,0.45193 0.254,0.45193 0.1397,0 0.254,0.2286 0.254,0.508 0,0.2794 0.1143,0.508 0.254,0.508 0.1397,0 0.254,0.15389 0.254,0.34198 0,0.56715 0.70368,1.79272 1.25776,2.19059 0.28613,0.20547 0.52024,0.51632 0.52024,0.69078 0,0.17446 0.2286,0.7242 0.508,1.22165 0.2794,0.49745 0.508,1.07242 0.508,1.27773 0,0.2053 0.1143,0.37327 0.254,0.37327 0.1397,0 0.254,0.2286 0.254,0.508 0,0.2794 0.1143,0.508 0.254,0.508 0.1397,0 0.254,0.26331 0.254,0.58513 0,0.69368 1.21402,3.22487 1.54672,3.22487 0.12721,0 0.23128,0.22185 0.23128,0.49301 0,0.27115 0.1143,0.56365 0.254,0.64999 0.1397,0.0863 0.254,0.49313 0.254,0.90399 0,0.41086 0.1143,0.74701 0.254,0.74701 0.1397,0 0.254,0.3429 0.254,0.762 0,0.4191 0.1143,0.762 0.254,0.762 0.1397,0 0.254,0.33615 0.254,0.74701 0,0.41085 0.1143,0.81765 0.254,0.90399 0.1397,0.0863 0.254,0.49313 0.254,0.90399 0,0.41086 0.1143,0.74701 0.254,0.74701 0.1397,0 0.254,0.33615 0.254,0.74701 0,0.41085 0.1143,0.81765 0.254,0.90399 0.1397,0.0863 0.254,0.65059 0.254,1.25389 0,0.66516 0.14997,1.22137 0.381,1.41311 0.24338,0.20198 0.381,0.76372 0.381,1.5551 0,0.6814 0.1143,1.2389 0.254,1.2389 0.15151,0 0.254,0.97367 0.254,2.413 0,1.43933 0.1025,2.413 0.254,2.413 0.15875,0 0.254,1.524 0.254,4.064 0,2.54 0.0952,4.064 0.254,4.064 0.1397,0 0.254,0.32385 0.254,0.71967 0,0.87468 0.1993,1.10278 0.87855,1.00554 0.50196,-0.0719 0.52063,-0.25544 0.58694,-5.77153 z m -8.40815,-31.42901 c -0.0931,-0.0931 -0.16934,-0.28745 -0.16934,-0.4318 0,-0.15916 0.11831,-0.14416 0.30057,0.0381 0.16531,0.16531 0.24151,0.35962 0.16933,0.4318 -0.0722,0.0722 -0.20743,0.055 -0.30056,-0.0381 z m -122.597337,-2.099 c 0,-0.12999 0.25718,-0.27286 0.5715,-0.3175 0.36728,-0.0522 0.60051,-0.2854 0.65267,-0.65267 0.0866,-0.60994 0.55383,-0.80343 0.55383,-0.22936 0,0.56071 0.90833,1.43586 1.4903,1.43586 0.29794,0 0.54171,-0.1143 0.54171,-0.254 0,-0.1397 0.16683,-0.254 0.37073,-0.254 0.49715,0 2.423267,-1.90997 2.423267,-2.40294 0,-0.21508 0.12246,-0.39106 0.27214,-0.39106 0.35272,0 0.99786,0.64663 0.99786,1.00017 0,0.43895 1.41165,1.79383 1.86899,1.79383 0.22936,0 0.41701,0.1143 0.41701,0.254 0,0.54385 1.05838,0.21458 1.73139,-0.53865 l 0.70823,-0.79265 0.79265,0.79265 c 0.90895,0.90895 1.84773,1.06119 1.84773,0.29964 0,-0.27116 0.1143,-0.56365 0.254,-0.64999 0.1397,-0.0863 0.254,-0.5013 0.254,-0.92213 0,-0.68014 0.0423,-0.72282 0.381,-0.38416 0.20955,0.20955 0.381,0.54839 0.381,0.75297 0,0.81005 1.95347,0.93682 2.61055,0.16942 0.24059,-0.281 0.43745,-0.62872 0.43745,-0.77272 0,-0.144 0.11819,-0.39987 0.26266,-0.5686 0.14446,-0.16873 0.42658,-0.53538 0.62692,-0.81478 0.33331,-0.46483 0.36495,-0.3843 0.37234,0.94766 0.007,1.33753 0.0596,1.46858 0.64251,1.61489 0.86467,0.21702 1.39757,-0.0307 1.39757,-0.64958 0,-0.28378 0.1143,-0.51597 0.254,-0.51597 0.1397,0 0.254,-0.3429 0.254,-0.762 0,-0.4191 0.1143,-0.762 0.254,-0.762 0.14471,0 0.254,-0.75163 0.254,-1.7469 0,-1.242927 0.10991,-1.838117 0.381,-2.063097 0.21975,-0.18238 0.381,-0.73639 0.381,-1.30907 0,-0.64824 -0.13225,-1.04362 -0.381,-1.13908 -0.30466,-0.1169 -0.381,-0.67216 -0.381,-2.77104 0,-1.4759 -0.11118,-2.69354 -0.254,-2.78181 -0.1397,-0.0863 -0.254,-0.83604 -0.254,-1.66599 0,-0.83667 -0.11317,-1.50901 -0.254,-1.50901 -0.14329,0 -0.254,-0.71967 -0.254,-1.651 0,-0.93134 -0.11072,-1.651 -0.254,-1.651 -0.14676,0 -0.254,-0.80434 -0.254,-1.905 0,-1.10067 -0.10725,-1.905 -0.254,-1.905 -0.1397,0 -0.254,-0.33616 -0.254,-0.74701 0,-0.96395 -0.30825,-1.13682 -0.98322,-0.55143 -0.5981,0.51874 -0.74723,1.94334 -0.22328,2.13309 0.254,0.092 0.254,0.22252 0,0.65272 -0.17463,0.29575 -0.3175,1.0618 -0.3175,1.70232 0,1.03519 -0.0423,1.12226 -0.381,0.78359 -0.20955,-0.20955 -0.381,-0.66816 -0.381,-1.01915 0,-0.35098 -0.1143,-0.70879 -0.254,-0.79513 -0.1397,-0.0863 -0.254,-0.37884 -0.254,-0.64999 0,-0.27116 -0.1143,-0.49301 -0.254,-0.49301 -0.1397,0 -0.254,-0.2286 -0.254,-0.508 0,-0.2794 -0.1143,-0.508 -0.254,-0.508 -0.1397,0 -0.254,-0.2286 -0.254,-0.508 0,-0.39511 -0.16934,-0.508 -0.762,-0.508 -0.71777,0 -0.762,0.0581 -0.762,1.00101 0,0.55055 -0.1143,1.07165 -0.254,1.15799 -0.1397,0.0863 -0.25471,0.57886 -0.25557,1.09449 l -0.002,0.93751 -0.37944,-0.72754 c -0.20869,-0.40014 -0.37943,-1.11451 -0.37943,-1.5875 0,-0.47298 -0.1143,-0.85996 -0.254,-0.85996 -0.1397,0 -0.254,-0.23619 -0.254,-0.52487 0,-0.42274 -0.13592,-0.50924 -0.6985,-0.4445 -0.57909,0.0666 -0.72353,0.23235 -0.84489,0.96937 l -0.14638,0.889 -0.30902,-0.635 c -1.16654,-2.39706 -2.57321,-3.80259 -2.57321,-2.5711 0,0.26229 -0.17145,0.61919 -0.381,0.7931 -0.23249,0.19295 -0.381,0.74961 -0.381,1.4281 0,0.61154 -0.1143,1.1119 -0.254,1.1119 -0.1397,0 -0.254,-0.17504 -0.254,-0.38897 0,-0.21394 -0.17145,-0.45477 -0.381,-0.53518 -0.20955,-0.0804 -0.38462,-0.4483 -0.38903,-0.81753 -0.008,-0.68109 -1.01674,-2.06832 -1.50379,-2.06832 -0.1464,0 -0.266177,0.2146 -0.266177,0.4769 0,0.26229 -0.14796,0.59969 -0.3288,0.74977 -0.18084,0.15008 -0.48792,0.67843 -0.68241,1.1741 -0.57884,1.47524 -1.02079,1.15062 -1.02079,-0.74977 0,-1.50065 -0.0479,-1.651 -0.52615,-1.651 -0.60363,0 -1.25185,0.55954 -1.25185,1.08058 0,0.19518 -0.28576,0.62331 -0.63501,0.95142 -0.34925,0.3281 -0.635,0.74808 -0.635,0.93327 0,0.64262 -0.47469,0.33299 -0.55463,-0.36177 -0.0631,-0.54863 -0.23024,-0.71575 -0.77887,-0.77887 -0.56258,-0.0647 -0.6985,0.0218 -0.6985,0.4445 0,0.28868 -0.1143,0.52487 -0.254,0.52487 -0.1397,0 -0.254,0.4432 -0.254,0.9849 0,0.5656 -0.1622,1.11951 -0.381,1.3011 -0.3326,0.27603 -0.381,0.0864 -0.381,-1.4929 v -1.8091 h -1.016 c -0.84666,0 -1.016,0.0847 -1.016,0.508 0,0.2794 -0.1143,0.508 -0.254,0.508 -0.1397,0 -0.254,0.2286 -0.254,0.508 0,0.2794 -0.1143,0.508 -0.254,0.508 -0.1397,0 -0.254,0.2146 -0.254,0.4769 0,0.26229 -0.17145,0.61919 -0.381,0.7931 -0.20955,0.17391 -0.381,0.58795 -0.381,0.9201 0,0.33214 -0.1143,0.6039 -0.254,0.6039 -0.1507,0 -0.254,-0.93893 -0.254,-2.30879 0,-2.08632 -0.0549,-2.35327 -0.57023,-2.77053 -0.7769,-0.6291 -0.95377,-0.43804 -0.95377,1.03031 0,0.69025 -0.1143,1.25501 -0.254,1.25501 -0.14328,0 -0.254,0.71966 -0.254,1.651 0,0.93133 -0.11072,1.651 -0.254,1.651 -0.14328,0 -0.254,0.71966 -0.254,1.651 0,0.93133 -0.11072,1.651 -0.254,1.651 -0.14052,0 -0.254,0.66697 -0.254,1.4929 0,1.01715 -0.12141,1.59366 -0.381,1.8091 -0.31532,0.26169 -0.381,1.18794 -0.381,5.37307 0,4.260687 0.06,5.079887 0.381,5.203077 0.21718,0.0833 0.381,0.46216 0.381,0.88102 0,0.40416 0.1143,0.73483 0.254,0.73483 0.1397,0 0.254,0.17623 0.254,0.39162 0,0.21539 0.23238,0.64105 0.5164,0.94591 0.80455,0.86358 1.36976,0.33805 1.46665,-1.36369 0.0429,-0.75396 0.1858,-1.47943 0.3175,-1.61214 0.15073,-0.1519 0.23945,-0.0958 0.23945,0.15148 0,0.5316 0.74593,1.99482 1.01694,1.99482 0.11975,0 0.25426,0.25717 0.2989,0.5715 0.11457,0.80674 1.63949,0.93175 2.47944,0.20327 0.73841,-0.64043 1.28472,-0.3086 1.28472,0.78033 0,0.61029 0.10478,0.7309 0.635,0.7309 0.34925,0 0.635,-0.10635 0.635,-0.23633 z M -1.8366412,82.357583 c 0.566849,-0.70605 0.99186704,-1.54808 0.99186704,-1.96506 0,-0.21144 0.1143,-0.38444 0.254,-0.38444 0.1397,0 0.254,-0.20147 0.254,-0.44772 0,-0.24624 0.28575,-0.6623 0.635,-0.92457 0.65638,-0.49292 0.83754796,-1.26655 0.364995,-1.5586 -0.336381,-0.2079 -1.253995,0.59308 -1.253995,1.0946 0,0.20403 -0.48577504,0.81627 -1.07950004,1.36053 -0.829743,0.7606 -1.09951,0.89549 -1.165988,0.58299 -0.04757,-0.2236 0.152457,-0.6609 0.4445,-0.97176 0.292044,-0.31087 0.530988,-0.67934 0.530988,-0.81882 0,-0.13949 0.3429,-0.58213 0.762,-0.98365 0.41910004,-0.40153 0.76200004,-0.85586 0.76200004,-1.00963 0,-0.38281 4.03570596,-4.45137 4.41542296,-4.45137 0.167644,0 0.814381,-0.52487 1.437192,-1.16638 0.622812,-0.64151 1.38956,-1.26733 1.703885,-1.39071 0.787079,-0.30896 0.743219,-0.99891 -0.0635,-0.99891 -0.34925,0 -0.635,0.1143 -0.635,0.254 0,0.1397 -0.221854,0.254 -0.493009,0.254 -0.271156,0 -0.563651,0.1143 -0.649991,0.254 -0.08634,0.1397 -0.272518,0.254 -0.413731,0.254 -0.141212,0 0.620196,-0.85725 1.692019,-1.905 1.071823,-1.04775 2.048348,-1.905 2.170056,-1.905 0.121708,0 0.735638,-0.51435 1.3642882,-1.143 0.62865,-0.62865 1.296073,-1.143 1.483163,-1.143 0.18709,0 0.668682,-0.3429 1.070205,-0.762 0.401524,-0.4191 0.847894,-0.762 0.991935,-0.762 0.144041,0 0.495771,-0.27218 0.781623,-0.60485 0.285852,-0.33267 0.738563,-0.64699 1.006024,-0.6985 0.878272,-0.16914 0.544034,-0.60007 -0.526053,-0.67824 -0.701854,-0.0513 -1.355182,0.0957 -1.976226,0.4445 -0.510265,0.2866 -1.049869,0.52109 -1.199121,0.52109 -0.149252,0 -0.591684,0.3429 -0.983182,0.762 -0.391498,0.4191 -0.819626,0.762 -0.9513952,0.762 -0.13177,0 -0.888641,0.62865 -1.681936,1.397 -0.793296,0.76835 -1.562754,1.397 -1.709907,1.397 -0.147153,0 -1.111003,0.85725 -2.141889,1.905 -1.030886,1.04775 -2.027684,1.905 -2.215107,1.905 -0.410387,0 -3.235463,2.94098 -3.243255,3.37632 -0.003,0.16867 -0.403069,0.64849 -0.889,1.06626 -0.485931,0.41776 -0.883511,0.93546 -0.883511,1.15042 0,0.21497 -0.2286,0.55562 -0.508,0.757 -0.2794,0.20138 -0.508,0.56951 -0.508,0.81807 0,0.24856 -0.1143,0.45193 -0.254,0.45193 -0.1397,0 -0.254,0.62865 -0.254,1.397 0,0.76835 -0.1143,1.397 -0.254,1.397 -0.482571,0 -0.274076,1.6811 0.269507,2.17303 0.448028,0.40546 0.557331,0.42029 0.75811,0.10287 0.178897,-0.28283 0.235528,-0.21509 0.238494,0.28526 0.0021,0.3609 0.08009,0.73237 0.173223,0.8255 0.313529,0.31353 1.019237,0.1727 1.378799,-0.27516 z m 5.309867,-12.10728 c 0,-0.26776 0.76508,-0.99181 0.902653,-0.85424 0.06405,0.064 -0.112839,0.32398 -0.393096,0.57761 -0.280256,0.25363 -0.509557,0.37811 -0.509557,0.27663 z m 201.6336442,11.682 c 0.0609,-0.53446 0.1456,-0.64415 0.30199,-0.3911 0.36683,0.59354 1.26436,-0.43257 1.26436,-1.44549 0,-0.4673 -0.1143,-0.84963 -0.254,-0.84963 -0.1397,0 -0.254,-0.62865 -0.254,-1.397 0,-0.76835 -0.1143,-1.397 -0.254,-1.397 -0.1397,0 -0.254,-0.2286 -0.254,-0.508 0,-0.2794 -0.10043,-0.508 -0.22318,-0.508 -0.12275,0 -0.36185,-0.33478 -0.53134,-0.74395 -0.16948,-0.40917 -0.5834,-0.95065 -0.91981,-1.20329 -0.33642,-0.25263 -0.61167,-0.59748 -0.61167,-0.76633 0,-0.42445 -3.34022,-3.89043 -3.74928,-3.89043 -0.18242,0 -1.29234,-0.97155 -2.4665,-2.159 -1.17416,-1.18745 -2.26115,-2.159 -2.41555,-2.159 -0.1544,0 -0.91442,-0.62865 -1.68893,-1.397 -0.77451,-0.76835 -1.54442,-1.397 -1.7109,-1.397 -0.16648,0 -0.46745,-0.2286 -0.66883,-0.508 -0.20139,-0.2794 -0.50889,-0.508 -0.68335,-0.508 -0.17446,0 -0.73469,-0.23449 -1.24496,-0.52109 -0.62104,-0.34882 -1.27437,-0.49577 -1.97622,-0.4445 -1.0859,0.0793 -1.42869,0.50441 -0.54412,0.67476 0.2774,0.0534 0.73824,0.36931 1.02409,0.70198 0.28585,0.33267 0.63758,0.60485 0.78162,0.60485 0.14404,0 0.59041,0.3429 0.99194,0.762 0.40152,0.4191 0.88311,0.762 1.0702,0.762 0.18709,0 0.85451,0.51435 1.48316,1.143 0.62865,0.62865 1.24432,1.143 1.36816,1.143 0.12383,0 0.92168,0.6858 1.773,1.524 0.85131,0.8382 1.69964,1.524 1.88517,1.524 0.33397,0 1.6913,1.35876 1.6913,1.69307 0,0.0954 -0.25717,-0.0465 -0.5715,-0.3153 -0.7474,-0.63922 -1.62529,-1.12377 -2.03598,-1.12377 -0.1806,0 -0.49313,-0.2286 -0.69452,-0.508 -0.50643,-0.70264 -1.016,-0.6358 -1.016,0.13328 0,0.42924 0.18898,0.71547 0.5715,0.86563 0.31433,0.12338 1.08108,0.7492 1.70389,1.39071 0.62281,0.64151 1.26955,1.16638 1.43719,1.16638 0.37972,0 4.41542,4.06856 4.41542,4.45137 0,0.15377 0.3429,0.6081 0.762,1.00963 0.4191,0.40152 0.762,0.84416 0.762,0.98365 0,0.13948 0.23895,0.50795 0.53099,0.81882 0.29205,0.31086 0.49207,0.74816 0.4445,0.97176 -0.0665,0.3125 -0.33624,0.17761 -1.16599,-0.58299 -0.59372,-0.54426 -1.0795,-1.1565 -1.0795,-1.36053 0,-0.50152 -0.91761,-1.3025 -1.25399,-1.0946 -0.47255,0.29205 -0.29138,1.06568 0.36499,1.5586 0.34925,0.26227 0.635,0.67833 0.635,0.92457 0,0.24625 0.1143,0.44772 0.254,0.44772 0.1397,0 0.254,0.173 0.254,0.38444 0,0.42019 0.42689,1.26214 1.00199,1.97624 0.5612,0.69683 1.39421,0.45374 1.49566,-0.43646 z m -89.92821,-8.71872 c 0.88132,-0.56811 2.34057,-2.00826 2.34057,-2.30993 0,-0.12726 0.17145,-0.37366 0.381,-0.54757 0.22811,-0.18932 0.381,-0.74473 0.381,-1.38411 0,-1.04209 0.0184,-1.06521 0.762,-0.95607 0.64572,0.0948 0.762,0.0282 0.762,-0.43606 0,-0.68814 -1.7008,-2.55776 -2.32681,-2.55776 -0.25695,0 -0.46719,-0.1143 -0.46719,-0.254 0,-0.15297 -1.04533,-0.254 -2.62798,-0.254 -2.65852,0 -3.77179,0.28481 -4.4884,1.14827 -0.1715,0.20665 -0.44548,0.37573 -0.60884,0.37573 -0.16336,0 -0.80181,0.51435 -1.41878,1.143 -0.61698,0.62865 -1.32658,1.143 -1.57689,1.143 -0.25031,0 -0.45511,0.1143 -0.45511,0.254 0,0.46107 -1.07465,0.26411 -1.5501,-0.2841 -0.73446,-0.84683 -1.2894,-0.45063 -1.19512,0.85327 0.065,0.89976 0.17439,1.09549 0.64972,1.16299 0.31432,0.0446 0.5715,0.18752 0.5715,0.3175 0,0.35342 0.70198,0.28515 0.83464,-0.0812 0.092,-0.254 0.22253,-0.254 0.65272,0 0.29576,0.17463 0.76115,0.3175 1.0342,0.3175 0.27305,0 0.5671,0.1143 0.65344,0.254 0.0863,0.1397 0.37883,0.254 0.64999,0.254 0.27115,0 0.49301,0.1143 0.49301,0.254 0,0.1397 0.3429,0.254 0.762,0.254 0.4191,0 0.762,0.1143 0.762,0.254 0,0.1397 0.3289,0.254 0.73089,0.254 0.402,0 0.87319,0.17145 1.04711,0.381 0.17391,0.20955 0.58121,0.381 0.90511,0.381 0.3239,0 0.65955,0.1143 0.74589,0.254 0.23401,0.37864 0.82245,0.30842 1.59643,-0.1905 z m -25.345437,-0.4445 c 0.17391,-0.20955 0.64511,-0.381 1.0471,-0.381 0.402,0 0.7309,-0.1143 0.7309,-0.254 0,-0.1397 0.2286,-0.254 0.508,-0.254 0.2794,0 0.508,-0.1143 0.508,-0.254 0,-0.1397 0.3429,-0.254 0.762,-0.254 0.4191,0 0.762,-0.1143 0.762,-0.254 0,-0.1397 0.32004,-0.254 0.7112,-0.254 0.39116,0 0.84836,-0.13716 1.016,-0.3048 0.23707,-0.23707 0.30481,-0.23707 0.30481,0 0,0.16764 0.28575,0.3048 0.635,0.3048 0.34925,0 0.635,-0.1143 0.635,-0.254 0,-0.1397 0.22185,-0.254 0.49301,-0.254 0.73242,0 0.83169,-0.37076 0.33358,-1.24591 -0.42696,-0.75015 -1.58859,-1.13923 -1.58859,-0.53209 0,0.45079 -1.17706,0.2697 -1.65101,-0.254 -0.25285,-0.2794 -0.62392,-0.508 -0.8246,-0.508 -0.20068,0 -0.82523,-0.51435 -1.38788,-1.143 -0.56265,-0.62865 -1.16313,-1.143 -1.3344,-1.143 -0.17126,0 -0.51826,-0.2286 -0.77112,-0.508 -0.41044,-0.45354 -0.78231,-0.508 -3.46836,-0.508 -1.83643,0 -3.00864,0.099 -3.00864,0.254 0,0.1397 -0.1952,0.254 -0.43379,0.254 -0.66981,0 -2.36021,1.78577 -2.36021,2.49338 0,0.53583 0.0951,0.59831 0.762,0.50044 0.72992,-0.10713 0.762,-0.0721 0.762,0.83113 0,1.21503 0.40238,1.96535 1.74656,3.25684 1.07256,1.03052 1.11669,1.04621 2.94207,1.04621 1.33739,0 1.94118,-0.10604 2.16937,-0.381 z m -6.35,-12.01518 c 0,-0.11229 -0.40005,-0.59191 -0.889,-1.06582 -0.8562,-0.82987 -0.889,-0.93009 -0.889,-2.71683 0,-1.06745 0.10785,-1.85517 0.254,-1.85517 0.1397,0 0.26726,-0.37148 0.28347,-0.8255 0.0178,-0.49889 0.0732,-0.62451 0.14009,-0.3175 0.1534,0.70438 0.62742,1.69327 1.06535,2.2225 0.58561,0.70768 1.0487,0.54296 1.07114,-0.381 0.011,-0.45403 0.0777,-0.68263 0.14817,-0.508 0.0705,0.17462 0.29004,0.3175 0.48795,0.3175 0.25333,0 0.35983,-0.31576 0.35983,-1.0668 0,-0.81775 0.0697,-0.99705 0.29876,-0.76805 0.20282,0.20282 0.39751,0.2168 0.60629,0.0435 0.2205,-0.18299 0.49578,-0.0195 0.9726,0.57755 1.5838,1.98325 2.34692,2.7151 2.84252,2.72607 0.97543,0.0216 0.92562,-0.27905 -0.39784,-2.40129 -0.26136,-0.4191 -0.48355,-1.07633 -0.49376,-1.4605 -0.0102,-0.38418 -0.13287,-0.6985 -0.27257,-0.6985 -0.1397,0 -0.254,-0.2286 -0.254,-0.508 0,-0.2794 -0.1143,-0.508 -0.254,-0.508 -0.1397,0 -0.254,-0.33616 -0.254,-0.74701 0,-0.41086 -0.1143,-0.817654 -0.254,-0.903994 -0.1397,-0.08634 -0.254,-0.607435 -0.254,-1.15799 0,-0.550555 -0.1143,-1.00101 -0.254,-1.00101 -0.1397,0 -0.254,-0.450454 -0.254,-1.001009 0,-0.550556 -0.1143,-1.071651 -0.254,-1.157991 -0.1397,-0.08634 -0.254,-0.650589 -0.254,-1.253889 0,-1.361052 -0.48022,-1.864344 -1.09443,-1.147001 -0.23626,0.275933 -0.42957,0.646608 -0.42957,0.823721 0,0.177113 -0.2286,0.486789 -0.508,0.688169 -0.2794,0.20138 -0.508,0.557284 -0.508,0.790898 0,0.233614 -0.17145,0.490543 -0.381,0.570955 -0.20955,0.08041 -0.381,0.378391 -0.381,0.662176 0,0.283784 -0.1143,0.515971 -0.254,0.515971 -0.1397,0 -0.254,0.2286 -0.254,0.508 0,0.2794 -0.1143,0.508 -0.254,0.508 -0.1397,0 -0.254,0.221855 -0.254,0.49301 0,0.271155 -0.1143,0.563651 -0.254,0.64999 -0.1397,0.08634 -0.254,0.42924 -0.254,0.762 0,0.332764 -0.1143,0.675664 -0.254,0.762004 -0.1397,0.0863 -0.254,0.37883 -0.254,0.64999 0,0.27115 -0.1143,0.49301 -0.254,0.49301 -0.1397,0 -0.254,0.3429 -0.254,0.762 0,0.4191 -0.1143,0.762 -0.254,0.762 -0.15398,0 -0.254,1.10307 -0.254,2.80121 v 2.80122 l 0.8255,0.86433 c 0.53003,0.55495 1.07552,0.87057 1.524,0.88178 0.38418,0.01 0.6985,-0.0744 0.6985,-0.18672 z m 36.714547,-0.41928 c 0.3429,-0.3429 0.62346,-0.8001 0.62346,-1.016 0,-0.2159 0.1143,-0.39254 0.254,-0.39254 0.148,0 0.254,-0.84167 0.254,-2.01701 0,-1.10936 -0.1143,-2.08765 -0.254,-2.17399 -0.1397,-0.0863 -0.254,-0.49314 -0.254,-0.90399 0,-0.41086 -0.1143,-0.74701 -0.254,-0.74701 -0.1397,0 -0.254,-0.3429 -0.254,-0.762 0,-0.4191 -0.1143,-0.762 -0.254,-0.762 -0.1397,0 -0.254,-0.28228 -0.254,-0.62728 0,-0.345 -0.2286,-1.034274 -0.508,-1.531723 -0.2794,-0.497448 -0.508,-1.072425 -0.508,-1.277726 0,-0.2053 -0.10191,-0.373274 -0.22647,-0.373274 -0.12455,0 -0.29818,-0.28575 -0.38584,-0.635 -0.0876,-0.34925 -0.2715,-0.635 -0.40853,-0.635 -0.13704,0 -0.24916,-0.2286 -0.24916,-0.508 0,-0.2794 -0.1143,-0.508 -0.254,-0.508 -0.1397,0 -0.254,-0.186618 -0.254,-0.414707 0,-0.228089 -0.21504,-0.601203 -0.47785,-0.829142 -0.26282,-0.22794 -0.52156,-0.641397 -0.57498,-0.918793 -0.0658,-0.341863 -0.3006,-0.504358 -0.72865,-0.504358 -0.61899,0 -0.63298,0.04411 -0.70491,2.2225 -0.0404,1.222375 -0.18324,2.2225 -0.3175,2.2225 -0.13426,0 -0.24411,0.3429 -0.24411,0.762 0,0.4191 -0.1143,0.762 -0.254,0.762 -0.1397,0 -0.254,0.450455 -0.254,1.00101 0,0.550553 -0.1143,1.071653 -0.254,1.157993 -0.1397,0.0863 -0.254,0.37883 -0.254,0.64999 0,0.27115 -0.1143,0.49301 -0.254,0.49301 -0.1397,0 -0.254,0.3429 -0.254,0.762 0,0.4191 -0.1143,0.762 -0.254,0.762 -0.1397,0 -0.254,0.22185 -0.254,0.49301 0,0.27115 -0.11125,0.56176 -0.24721,0.64579 -0.13596,0.084 -0.43201,0.54223 -0.65788,1.01822 -0.39714,0.83692 -0.33431,1.39898 0.15639,1.39898 0.4088,0 3.2887,-2.98366 3.2887,-3.40718 0,-0.51335 0.22293,-0.50967 0.80072,0.0132 0.42995,0.3891 0.47543,0.37676 0.7024,-0.1905 0.20206,-0.50504 0.24537,-0.38338 0.25878,0.72696 0.0118,0.97968 0.1125,1.3335 0.37943,1.3335 0.19983,0 0.41287,-0.25718 0.47341,-0.5715 0.0605,-0.31433 0.12564,-0.0857 0.14467,0.508 0.024,0.74943 0.14539,1.0795 0.39698,1.0795 0.40539,0 1.16161,-1.34827 1.16161,-2.07103 0,-0.25794 0.17145,-0.46897 0.381,-0.46897 0.27516,0 0.381,0.28222 0.381,1.016 0,0.5588 0.1143,1.016 0.254,1.016 0.1397,0 0.254,0.40005 0.254,0.889 0,0.48895 -0.1143,0.889 -0.254,0.889 -0.1397,0 -0.254,0.32297 -0.254,0.71772 0,0.43716 -0.24823,0.95092 -0.635,1.31428 -0.34925,0.3281 -0.635,0.69092 -0.635,0.80627 0,0.45955 1.33048,0.17233 1.91654,-0.41373 z"
       id="path1" /></g></svg>
